<svg xmlns="http://www.w3.org/2000/svg" xmlns:xlink="http://www.w3.org/1999/xlink" width="120" zoomAndPan="magnify" viewBox="0 0 1440 809.999993" height="100" preserveAspectRatio="xMidYMid meet" version="1.0"><path stroke-linecap="round" transform="matrix(0.576155, 0, 0, 0.575938, 187.213487, -9025.363686)" fill="none" stroke-linejoin="round" d="M 908.388453 17069.701908 C 895.39824 16881.198204 917.622624 16609.596332 1092.482015 16366.799383 C 1187.861098 16234.298092 1393.623096 16151.701823 1526.372771 16046.899922 C 1644.301671 15953.702736 1722.758221 15828.702798 1761.979717 15766.202829 " stroke="#000000" stroke-width="13.75" stroke-opacity="1" stroke-miterlimit="1.5"/><path stroke-linecap="round" transform="matrix(0.576155, 0, 0, 0.575938, 187.213487, -9025.363686)" fill="none" stroke-linejoin="round" d="M 956.213592 16628.899089 C 960.505244 16620.699148 909.276615 16474.700848 904.591731 16462.695971 C 889.838754 16424.802609 873.784043 16382.500677 851.186767 16348.398687 C 839.308451 16330.499889 822.941867 16319.498809 807.714299 16304.998003 C 730.322187 16230.900102 697.378843 16096.499735 596.345357 16017.301456 C 512.112365 15951.403496 124.826373 15768.00017 110.059836 15757.500989 " stroke="#000000" stroke-width="13.75" stroke-opacity="1" stroke-miterlimit="1.5"/><path stroke-linecap="round" transform="matrix(0.576155, 0, 0, 0.575938, 187.213487, -9025.363686)" fill="none" stroke-linejoin="round" d="M 1506.378962 16376.301548 C 1414.193194 16428.39729 1089.451418 16443.901895 1060.792946 16424.497401 C 1039.239768 16409.799904 1093.987145 16166.901219 1128.089845 16120.197498 C 1176.592969 16053.899376 1220.933259 15983.002775 1298.088076 15946.099647 C 1401.860627 15896.398098 1518.542032 15912.302865 1623.568857 15868.101856 C 1654.722318 15854.998227 1692.079351 15836.801003 1714.168138 15810.702264 C 1719.747963 15804.102973 1762.020396 15754.197952 1767.796837 15757.697679 C 1781.729451 15765.999357 1769.288407 15918.902156 1763.952656 15941.799595 C 1725.009135 16108.701302 1665.712472 16286.197144 1506.378962 16376.301548 Z M 1506.378962 16376.301548 " stroke="#000000" stroke-width="13.75" stroke-opacity="1" stroke-miterlimit="1.5"/><path stroke-linecap="round" transform="matrix(0.576155, 0, 0, 0.575938, 187.213487, -9025.363686)" fill="none" stroke-linejoin="round" d="M 841.139013 16342.301294 C 831.260756 16334.698205 558.079822 16339.900319 469.853493 16272.903608 C 282.803911 16130.798415 114.920996 15749.599473 73.414688 15728.797802 C 63.339815 15723.799161 96.045864 15730.798615 106.730924 15734.400078 C 139.538671 15745.299421 641.804324 15590.802754 826.345357 15877.502285 C 925.941513 16032.297379 862.983725 16305.900064 841.139013 16342.301294 Z M 841.139013 16342.301294 " stroke="#000000" stroke-width="13.75" stroke-opacity="1" stroke-miterlimit="1.5"/><path stroke-linecap="round" transform="matrix(0.576155, 0, 0, 0.575938, 187.213487, -9025.363686)" fill="none" stroke-linejoin="round" d="M 1138.707107 16312.601092 C 1180.626987 16287.200942 1274.297544 16289.201755 1293.131998 16288.001267 C 1351.899832 16284.203114 1467.137127 16258.497755 1526.372771 16258.497755 " stroke="#000000" stroke-width="13.75" stroke-opacity="1" stroke-miterlimit="1.5"/><path stroke-linecap="round" transform="matrix(0.576155, 0, 0, 0.575938, 187.213487, -9025.363686)" fill="none" stroke-linejoin="round" d="M 1231.842056 16233.002651 C 1229.408086 16182.799203 1288.189479 16016.202705 1293.131998 15989.602067 " stroke="#000000" stroke-width="13.75" stroke-opacity="1" stroke-miterlimit="1.5"/><path stroke-linecap="round" transform="matrix(0.576155, 0, 0, 0.575938, 187.213487, -9025.363686)" fill="none" stroke-linejoin="round" d="M 760.302732 16238.699881 C 757.285694 16098.697237 731.929014 16038.401554 748.390517 15989.602067 " stroke="#000000" stroke-width="13.75" stroke-opacity="1" stroke-miterlimit="1.5"/><path stroke-linecap="round" transform="matrix(0.576155, 0, 0, 0.575938, 187.213487, -9025.363686)" fill="none" stroke-linejoin="round" d="M 695.304206 16130.296516 C 669.567854 16120.502707 439.26276 16131.300314 409.105939 16135.49863 " stroke="#000000" stroke-width="13.75" stroke-opacity="1" stroke-miterlimit="1.5"/></svg>