<svg width="70" height="64" viewBox="0 0 59 53" fill="none" xmlns="http://www.w3.org/2000/svg">
<path d="M57.5306 3.60553V23.4071H1.62064V3.60553C1.62064 2.71882 2.37159 2 3.29794 2H55.8533C56.7798 2 57.5306 2.71882 57.5306 3.60553Z" stroke="#F3DDB8" stroke-width="2.63" stroke-linecap="round" stroke-linejoin="round"/>
<path d="M46.3481 12.7041H49.1436" stroke="#F3DDB8" stroke-width="2.63" stroke-linecap="round" stroke-linejoin="round"/>
<path d="M1.62064 23.4072L3.82822 30.3228C4.54663 32.5735 6.71667 34.1108 9.17517 34.1108H12.8026" stroke="#F3DDB8" stroke-width="2.63" stroke-linecap="round" stroke-linejoin="round"/>
<path d="M57.5301 23.4072L55.3225 30.3228C54.604 32.5735 52.4342 34.1108 49.9755 34.1108H46.3481" stroke="#F3DDB8" stroke-width="2.63" stroke-linecap="round" stroke-linejoin="round"/>
<path d="M22.5875 32.7729C22.5875 32.7729 22.5875 51.5042 12.8032 51.5042" stroke="#F3DDB8" stroke-width="2.63" stroke-linecap="round" stroke-linejoin="round"/>
<path d="M36.5642 32.7729C36.5642 32.7729 36.5642 51.5042 46.3484 51.5042" stroke="#F3DDB8" stroke-width="2.63" stroke-linecap="round" stroke-linejoin="round"/>
<path d="M29.5757 32.7729V51.5042" stroke="#F3DDB8" stroke-width="2.63" stroke-linecap="round" stroke-linejoin="round"/>
</svg>
