<svg width="70" height="62" viewBox="0 0 69 49" fill="none" xmlns="http://www.w3.org/2000/svg">
<path d="M68.4214 13.3761C49.3286 -4.46198 19.6337 -4.45545 0.548436 13.3761C-0.169284 14.0467 -0.183293 15.1821 0.510718 15.8776L4.20061 19.5755C4.8623 20.2395 5.92702 20.2536 6.61457 19.6168C22.3397 5.06504 46.628 5.06177 62.3564 19.6168C63.0439 20.2536 64.1086 20.2384 64.7703 19.5755L68.4602 15.8776C69.1532 15.1821 69.1391 14.0467 68.4214 13.3761ZM34.4849 34.8337C30.6754 34.8337 27.5879 37.9524 27.5879 41.8005C27.5879 45.6485 30.6754 48.7672 34.4849 48.7672C38.2944 48.7672 41.3819 45.6485 41.3819 41.8005C41.3819 37.9524 38.2944 34.8337 34.4849 34.8337ZM56.3258 25.7345C43.9047 14.6389 25.0511 14.6508 12.6441 25.7345C11.9005 26.3985 11.8768 27.5513 12.5826 28.2545L16.2941 31.9545C16.9407 32.5989 17.9817 32.6425 18.6703 32.0416C27.7172 24.1419 41.2731 24.1594 50.2985 32.0416C50.9871 32.6425 52.0281 32.6 52.6747 31.9545L56.3861 28.2545C57.0931 27.5513 57.0683 26.3974 56.3258 25.7345Z" fill="#F3DDB8"/>
</svg>
