<svg width="75" height="54" viewBox="0 0 75 54" fill="none" xmlns="http://www.w3.org/2000/svg">
<path d="M73.1193 13.7182C73.1193 7.1685 67.262 0.315991 67.262 2.37123C67.262 4.42646 68.3454 31.7218 68.3454 31.7218L67.262 49.5711C67.262 50.7885 68.2863 51.7752 69.5498 51.7752C70.8134 51.7752 71.8377 50.7885 71.8377 49.5711L71.2326 31.6193C71.2326 31.6193 73.1193 20.2678 73.1193 13.7182Z" stroke="#F3DDB8" stroke-width="2.56" stroke-miterlimit="10"/>
<path d="M10.5483 3.18701C10.5483 3.18701 10.6759 7.76939 10.6759 12.1201C10.6759 15.3832 9.64716 17.4324 8.18113 18.2531L8.21373 49.5716C8.21373 50.7889 7.18947 51.7757 5.92591 51.7757C4.66236 51.7757 3.6381 50.7889 3.6381 49.5716L4.56558 18.2596C3.09337 17.4432 2.05928 15.3917 2.05928 12.1201C2.05928 7.76939 2.18683 3.18701 2.18683 3.18701" stroke="#F3DDB8" stroke-width="2.56" stroke-miterlimit="10" stroke-linecap="round" stroke-linejoin="round"/>
<path d="M6.36774 3.18701V13.7502" stroke="#F3DDB8" stroke-width="2.56" stroke-miterlimit="10" stroke-linecap="round" stroke-linejoin="round"/>
<path d="M38.6644 46.3617C51.2733 46.3617 61.4949 36.5141 61.4949 24.3664C61.4949 12.2187 51.2733 2.37109 38.6644 2.37109C26.0555 2.37109 15.834 12.2187 15.834 24.3664C15.834 36.5141 26.0555 46.3617 38.6644 46.3617Z" stroke="#F3DDB8" stroke-width="2.56" stroke-miterlimit="10" stroke-linecap="round" stroke-linejoin="round"/>
<path d="M38.6691 37.8024C46.3447 37.8024 52.567 31.8078 52.567 24.4129C52.567 17.0181 46.3447 11.0234 38.6691 11.0234C30.9935 11.0234 24.7712 17.0181 24.7712 24.4129C24.7712 31.8078 30.9935 37.8024 38.6691 37.8024Z" stroke="#F3DDB8" stroke-width="2.56" stroke-miterlimit="10" stroke-linecap="round" stroke-linejoin="round"/>
</svg>
