<svg width="21" height="21" viewBox="0 0 21 21" fill="none" xmlns="http://www.w3.org/2000/svg">
<path d="M20.9324 6.10231C20.9195 5.23465 20.7563 4.37386 20.4437 3.56236C19.8968 2.17661 18.7832 1.08086 17.3733 0.54444C16.5581 0.242992 15.6964 0.0813795 14.8241 0.0630405C13.7022 0.0137544 13.3466 0 10.4988 0C7.6511 0 7.2861 7.6858e-08 6.17242 0.0630405C5.30131 0.0813795 4.43953 0.242992 3.62439 0.54444C2.21452 1.08086 1.09968 2.17661 0.55392 3.56236C0.247223 4.36354 0.0816304 5.21058 0.0653043 6.06678C0.0151599 7.17056 0 7.52015 0 10.3191C0 13.1181 -8.68848e-09 13.4758 0.0653043 14.5715C0.0827965 15.4289 0.247223 16.2747 0.55392 17.0782C1.10084 18.4628 2.21452 19.5586 3.62556 20.095C4.43719 20.4068 5.29898 20.5833 6.17359 20.6108C7.29659 20.6601 7.65227 20.675 10.5 20.675C13.3477 20.675 13.7127 20.675 14.8264 20.6108C15.6975 20.5936 16.5593 20.432 17.3756 20.1305C18.7855 19.593 19.8992 18.4972 20.4461 17.1126C20.7528 16.3103 20.9172 15.4644 20.9347 14.6059C20.9848 13.5033 21 13.1537 21 10.3535C20.9977 7.55454 20.9977 7.19922 20.9324 6.10231ZM10.4918 15.6122C7.5135 15.6122 5.10073 13.2408 5.10073 10.3134C5.10073 7.38605 7.5135 5.01458 10.4918 5.01458C13.4678 5.01458 15.8829 7.38605 15.8829 10.3134C15.8829 13.2408 13.4678 15.6122 10.4918 15.6122ZM16.0975 6.05417C15.4013 6.05417 14.8404 5.50171 14.8404 4.81858C14.8404 4.13545 15.4013 3.58299 16.0975 3.58299C16.7914 3.58299 17.3535 4.13545 17.3535 4.81858C17.3535 5.50171 16.7914 6.05417 16.0975 6.05417Z" fill="#F3DDB8"/>
<path d="M10.4917 13.7555C12.4258 13.7555 13.9936 12.2145 13.9936 10.3135C13.9936 8.41256 12.4258 6.87152 10.4917 6.87152C8.55762 6.87152 6.98975 8.41256 6.98975 10.3135C6.98975 12.2145 8.55762 13.7555 10.4917 13.7555Z" fill="#F3DDB8"/>
</svg>
