<svg width="22" height="22" viewBox="0 0 22 22" fill="none" xmlns="http://www.w3.org/2000/svg">
<path fill-rule="evenodd" clip-rule="evenodd" d="M18.7946 3.1975C16.7263 1.13667 13.976 0.0012144 11.0464 0C5.00887 0 0.0939546 4.89037 0.0915142 10.9016C0.0915142 12.8228 0.595452 14.6978 1.5533 16.3518L0 22L5.80688 20.4832C7.40776 21.3515 9.20876 21.8093 11.0415 21.8106H11.0464C17.0826 21.8106 21.9976 16.9202 22 10.9089C22 7.9968 20.8628 5.25834 18.7946 3.1975ZM11.0464 19.9707H11.0427C9.40887 19.9695 7.80677 19.5336 6.40843 18.7066L6.07654 18.5098L2.63073 19.4097L3.54953 16.0665L3.33355 15.724C2.42207 14.2813 1.94132 12.6139 1.94132 10.9016C1.94376 5.90561 6.02773 1.84102 11.05 1.84102C13.4819 1.84224 15.7673 2.78582 17.4865 4.49812C19.2045 6.21164 20.1514 8.48741 20.1502 10.9089C20.1478 15.9049 16.0638 19.9707 11.0464 19.9707ZM16.0406 13.1835C15.7661 13.0463 14.4214 12.3881 14.17 12.297C13.9199 12.2059 13.7381 12.161 13.5551 12.433C13.372 12.705 12.8474 13.3183 12.6875 13.5004C12.5277 13.6826 12.3678 13.7045 12.0945 13.5684C11.8212 13.4324 10.939 13.1446 9.89329 12.2168C9.07942 11.4943 8.53034 10.6029 8.37049 10.3297C8.21065 10.0564 8.35341 9.90947 8.49129 9.77346C8.61453 9.65202 8.76461 9.45529 8.90128 9.2962C9.03794 9.13712 9.08308 9.02418 9.1746 8.84202C9.26611 8.65986 9.22096 8.50077 9.15141 8.36476C9.08308 8.22753 8.53522 6.88684 8.30704 6.34158C8.08619 5.81331 7.86045 5.88375 7.69207 5.87646C7.53344 5.86918 7.35042 5.86675 7.16861 5.86675C6.98558 5.86675 6.68907 5.93475 6.43771 6.20678C6.18636 6.48002 5.47987 7.13822 5.47987 8.47891C5.47987 9.81961 6.4609 11.1154 6.59756 11.2975C6.73422 11.4797 8.5279 14.2303 11.2733 15.4107C11.9273 15.6912 12.4374 15.8588 12.8339 15.9851C13.4892 16.1928 14.0859 16.1624 14.5581 16.0932C15.084 16.0155 16.1773 15.435 16.4054 14.7986C16.6336 14.1623 16.6336 13.617 16.5653 13.5029C16.4969 13.3887 16.3127 13.3195 16.0406 13.1835Z" fill="#F3DDB8" fill-opacity="0.9"/>
</svg>
