<svg width="257" height="152" viewBox="0 0 147 82" fill="none" xmlns="http://www.w3.org/2000/svg">
<path d="M21.4664 76.9034C20.6131 76.9034 19.8238 76.7647 19.0984 76.4874C18.3838 76.1994 17.7598 75.7994 17.2264 75.2874C16.7038 74.7647 16.2931 74.1567 15.9944 73.4634C15.6958 72.7701 15.5464 72.0074 15.5464 71.1754C15.5464 70.3434 15.6958 69.5807 15.9944 68.8874C16.2931 68.1941 16.7091 67.5914 17.2424 67.0794C17.7758 66.5567 18.3998 66.1567 19.1144 65.8794C19.8398 65.5914 20.6291 65.4474 21.4824 65.4474C22.3464 65.4474 23.1411 65.5967 23.8664 65.8954C24.6024 66.1834 25.2264 66.6154 25.7384 67.1914L24.6984 68.1994C24.2718 67.7514 23.7918 67.4207 23.2584 67.2074C22.7251 66.9834 22.1544 66.8714 21.5464 66.8714C20.9171 66.8714 20.3304 66.9781 19.7864 67.1914C19.2531 67.4047 18.7891 67.7034 18.3944 68.0874C17.9998 68.4714 17.6904 68.9301 17.4664 69.4634C17.2531 69.9861 17.1464 70.5567 17.1464 71.1754C17.1464 71.7941 17.2531 72.3701 17.4664 72.9034C17.6904 73.4261 17.9998 73.8794 18.3944 74.2634C18.7891 74.6474 19.2531 74.9461 19.7864 75.1594C20.3304 75.3727 20.9171 75.4794 21.5464 75.4794C22.1544 75.4794 22.7251 75.3727 23.2584 75.1594C23.7918 74.9354 24.2718 74.5941 24.6984 74.1354L25.7384 75.1434C25.2264 75.7194 24.6024 76.1567 23.8664 76.4554C23.1411 76.7541 22.3411 76.9034 21.4664 76.9034ZM32.4716 76.7754V74.9834L32.3916 74.6474V71.5914C32.3916 70.9407 32.1996 70.4394 31.8156 70.0874C31.4422 69.7247 30.8769 69.5434 30.1196 69.5434C29.6182 69.5434 29.1276 69.6287 28.6476 69.7994C28.1676 69.9594 27.7622 70.1781 27.4316 70.4554L26.7916 69.3034C27.2289 68.9514 27.7516 68.6847 28.3596 68.5034C28.9782 68.3114 29.6236 68.2154 30.2956 68.2154C31.4582 68.2154 32.3542 68.4981 32.9836 69.0634C33.6129 69.6287 33.9276 70.4927 33.9276 71.6554V76.7754H32.4716ZM29.6876 76.8714C29.0582 76.8714 28.5036 76.7647 28.0236 76.5514C27.5542 76.3381 27.1916 76.0447 26.9356 75.6714C26.6796 75.2874 26.5516 74.8554 26.5516 74.3754C26.5516 73.9167 26.6582 73.5007 26.8716 73.1274C27.0956 72.7541 27.4529 72.4554 27.9436 72.2314C28.4449 72.0074 29.1169 71.8954 29.9596 71.8954H32.6476V72.9994H30.0236C29.2556 72.9994 28.7382 73.1274 28.4716 73.3834C28.2049 73.6394 28.0716 73.9487 28.0716 74.3114C28.0716 74.7274 28.2369 75.0634 28.5676 75.3194C28.8982 75.5647 29.3569 75.6874 29.9436 75.6874C30.5196 75.6874 31.0209 75.5594 31.4476 75.3034C31.8849 75.0474 32.1996 74.6741 32.3916 74.1834L32.6956 75.2394C32.4929 75.7407 32.1356 76.1407 31.6236 76.4394C31.1116 76.7274 30.4662 76.8714 29.6876 76.8714ZM36.5141 76.7754V67.5434C36.5141 66.7114 36.7541 66.0501 37.2341 65.5594C37.7247 65.0581 38.4181 64.8074 39.3141 64.8074C39.6447 64.8074 39.9594 64.8501 40.2581 64.9354C40.5674 65.0101 40.8287 65.1327 41.0421 65.3034L40.5781 66.4714C40.4181 66.3434 40.2367 66.2474 40.0341 66.1834C39.8314 66.1087 39.6181 66.0714 39.3941 66.0714C38.9461 66.0714 38.6047 66.1994 38.3701 66.4554C38.1354 66.7007 38.0181 67.0687 38.0181 67.5594V68.6954L38.0501 69.3994V76.7754H36.5141ZM35.0741 69.5594V68.2954H40.4821V69.5594H35.0741ZM45.1017 76.8714C44.195 76.8714 43.395 76.6847 42.7017 76.3114C42.019 75.9381 41.4857 75.4261 41.1017 74.7754C40.7284 74.1247 40.5417 73.3781 40.5417 72.5354C40.5417 71.6927 40.723 70.9461 41.0857 70.2954C41.459 69.6447 41.9657 69.1381 42.6057 68.7754C43.2564 68.4021 43.987 68.2154 44.7977 68.2154C45.619 68.2154 46.3444 68.3967 46.9737 68.7594C47.603 69.1221 48.0937 69.6341 48.4457 70.2954C48.8084 70.9461 48.9897 71.7087 48.9897 72.5834C48.9897 72.6474 48.9844 72.7221 48.9737 72.8074C48.9737 72.8927 48.9684 72.9727 48.9577 73.0474H41.7417V71.9434H48.1577L47.5337 72.3274C47.5444 71.7834 47.4324 71.2981 47.1977 70.8714C46.963 70.4447 46.6377 70.1141 46.2217 69.8794C45.8164 69.6341 45.3417 69.5114 44.7977 69.5114C44.2644 69.5114 43.7897 69.6341 43.3737 69.8794C42.9577 70.1141 42.6324 70.4501 42.3977 70.8874C42.163 71.3141 42.0457 71.8047 42.0457 72.3594V72.6154C42.0457 73.1807 42.1737 73.6874 42.4297 74.1354C42.6964 74.5727 43.0644 74.9141 43.5337 75.1594C44.003 75.4047 44.5417 75.5274 45.1497 75.5274C45.651 75.5274 46.1044 75.4421 46.5097 75.2714C46.9257 75.1007 47.2884 74.8447 47.5977 74.5034L48.4457 75.4954C48.0617 75.9434 47.5817 76.2847 47.0057 76.5194C46.4404 76.7541 45.8057 76.8714 45.1017 76.8714ZM43.5817 67.0634L45.7577 64.9834H47.7097L45.0217 67.0634H43.5817ZM57.9634 76.8714C57.1421 76.8714 56.4061 76.6901 55.7554 76.3274C55.1154 75.9647 54.6088 75.4581 54.2354 74.8074C53.8621 74.1567 53.6754 73.3994 53.6754 72.5354C53.6754 71.6714 53.8621 70.9194 54.2354 70.2794C54.6088 69.6287 55.1154 69.1221 55.7554 68.7594C56.4061 68.3967 57.1421 68.2154 57.9634 68.2154C58.6781 68.2154 59.3234 68.3754 59.8994 68.6954C60.4754 69.0154 60.9341 69.4954 61.2754 70.1354C61.6274 70.7754 61.8034 71.5754 61.8034 72.5354C61.8034 73.4954 61.6328 74.2954 61.2914 74.9354C60.9608 75.5754 60.5074 76.0607 59.9314 76.3914C59.3554 76.7114 58.6994 76.8714 57.9634 76.8714ZM58.0914 75.5274C58.6248 75.5274 59.1048 75.4047 59.5314 75.1594C59.9688 74.9141 60.3101 74.5674 60.5554 74.1194C60.8114 73.6607 60.9394 73.1327 60.9394 72.5354C60.9394 71.9274 60.8114 71.4047 60.5554 70.9674C60.3101 70.5194 59.9688 70.1727 59.5314 69.9274C59.1048 69.6821 58.6248 69.5594 58.0914 69.5594C57.5474 69.5594 57.0621 69.6821 56.6354 69.9274C56.2088 70.1727 55.8674 70.5194 55.6114 70.9674C55.3554 71.4047 55.2274 71.9274 55.2274 72.5354C55.2274 73.1327 55.3554 73.6607 55.6114 74.1194C55.8674 74.5674 56.2088 74.9141 56.6354 75.1594C57.0621 75.4047 57.5474 75.5274 58.0914 75.5274ZM60.9874 76.7754V74.4874L61.0834 72.5194L60.9234 70.5514V64.9034H62.4594V76.7754H60.9874ZM70.1497 76.7754V74.9834L70.0697 74.6474V71.5914C70.0697 70.9407 69.8777 70.4394 69.4937 70.0874C69.1204 69.7247 68.555 69.5434 67.7977 69.5434C67.2964 69.5434 66.8057 69.6287 66.3257 69.7994C65.8457 69.9594 65.4404 70.1781 65.1097 70.4554L64.4697 69.3034C64.907 68.9514 65.4297 68.6847 66.0377 68.5034C66.6564 68.3114 67.3017 68.2154 67.9737 68.2154C69.1364 68.2154 70.0324 68.4981 70.6617 69.0634C71.291 69.6287 71.6057 70.4927 71.6057 71.6554V76.7754H70.1497ZM67.3657 76.8714C66.7364 76.8714 66.1817 76.7647 65.7017 76.5514C65.2324 76.3381 64.8697 76.0447 64.6137 75.6714C64.3577 75.2874 64.2297 74.8554 64.2297 74.3754C64.2297 73.9167 64.3364 73.5007 64.5497 73.1274C64.7737 72.7541 65.131 72.4554 65.6217 72.2314C66.123 72.0074 66.795 71.8954 67.6377 71.8954H70.3257V72.9994H67.7017C66.9337 72.9994 66.4164 73.1274 66.1497 73.3834C65.883 73.6394 65.7497 73.9487 65.7497 74.3114C65.7497 74.7274 65.915 75.0634 66.2457 75.3194C66.5764 75.5647 67.035 75.6874 67.6217 75.6874C68.1977 75.6874 68.699 75.5594 69.1257 75.3034C69.563 75.0474 69.8777 74.6741 70.0697 74.1834L70.3737 75.2394C70.171 75.7407 69.8137 76.1407 69.3017 76.4394C68.7897 76.7274 68.1444 76.8714 67.3657 76.8714ZM88.3931 68.2154C89.0757 68.2154 89.6784 68.3487 90.2011 68.6154C90.7237 68.8821 91.1291 69.2874 91.4171 69.8314C91.7157 70.3754 91.8651 71.0634 91.8651 71.8954V76.7754H90.3291V72.0714C90.3291 71.2501 90.1371 70.6314 89.7531 70.2154C89.3691 69.7994 88.8304 69.5914 88.1371 69.5914C87.6251 69.5914 87.1771 69.6981 86.7931 69.9114C86.4091 70.1247 86.1104 70.4394 85.8971 70.8554C85.6944 71.2714 85.5931 71.7887 85.5931 72.4074V76.7754H84.0571V72.0714C84.0571 71.2501 83.8651 70.6314 83.4811 70.2154C83.1077 69.7994 82.5691 69.5914 81.8651 69.5914C81.3637 69.5914 80.9211 69.6981 80.5371 69.9114C80.1531 70.1247 79.8544 70.4394 79.6411 70.8554C79.4277 71.2714 79.3211 71.7887 79.3211 72.4074V76.7754H77.7851V68.2954H79.2571V70.5514L79.0171 69.9754C79.2837 69.4207 79.6944 68.9887 80.2491 68.6794C80.8037 68.3701 81.4491 68.2154 82.1851 68.2154C82.9957 68.2154 83.6944 68.4181 84.2811 68.8234C84.8677 69.2181 85.2517 69.8207 85.4331 70.6314L84.8091 70.3754C85.0651 69.7247 85.5131 69.2021 86.1531 68.8074C86.7931 68.4127 87.5397 68.2154 88.3931 68.2154ZM99.4753 76.7754V74.9834L99.3953 74.6474V71.5914C99.3953 70.9407 99.2033 70.4394 98.8193 70.0874C98.446 69.7247 97.8806 69.5434 97.1233 69.5434C96.622 69.5434 96.1313 69.6287 95.6513 69.7994C95.1713 69.9594 94.766 70.1781 94.4353 70.4554L93.7953 69.3034C94.2326 68.9514 94.7553 68.6847 95.3633 68.5034C95.982 68.3114 96.6273 68.2154 97.2993 68.2154C98.462 68.2154 99.358 68.4981 99.9873 69.0634C100.617 69.6287 100.931 70.4927 100.931 71.6554V76.7754H99.4753ZM96.6913 76.8714C96.062 76.8714 95.5073 76.7647 95.0273 76.5514C94.558 76.3381 94.1953 76.0447 93.9393 75.6714C93.6833 75.2874 93.5553 74.8554 93.5553 74.3754C93.5553 73.9167 93.662 73.5007 93.8753 73.1274C94.0993 72.7541 94.4566 72.4554 94.9473 72.2314C95.4486 72.0074 96.1206 71.8954 96.9633 71.8954H99.6513V72.9994H97.0273C96.2593 72.9994 95.742 73.1274 95.4753 73.3834C95.2086 73.6394 95.0753 73.9487 95.0753 74.3114C95.0753 74.7274 95.2406 75.0634 95.5713 75.3194C95.902 75.5647 96.3606 75.6874 96.9473 75.6874C97.5233 75.6874 98.0246 75.5594 98.4513 75.3034C98.8886 75.0474 99.2033 74.6741 99.3953 74.1834L99.6993 75.2394C99.4966 75.7407 99.1393 76.1407 98.6273 76.4394C98.1153 76.7274 97.47 76.8714 96.6913 76.8714ZM107.822 68.2154C108.515 68.2154 109.123 68.3487 109.646 68.6154C110.179 68.8821 110.595 69.2874 110.894 69.8314C111.192 70.3754 111.342 71.0634 111.342 71.8954V76.7754H109.806V72.0714C109.806 71.2501 109.603 70.6314 109.198 70.2154C108.803 69.7994 108.243 69.5914 107.518 69.5914C106.974 69.5914 106.499 69.6981 106.094 69.9114C105.688 70.1247 105.374 70.4394 105.15 70.8554C104.936 71.2714 104.83 71.7887 104.83 72.4074V76.7754H103.294V68.2954H104.766V70.5834L104.526 69.9754C104.803 69.4207 105.23 68.9887 105.806 68.6794C106.382 68.3701 107.054 68.2154 107.822 68.2154ZM118.232 68.2154C118.926 68.2154 119.534 68.3487 120.056 68.6154C120.59 68.8821 121.006 69.2874 121.304 69.8314C121.603 70.3754 121.752 71.0634 121.752 71.8954V76.7754H120.216V72.0714C120.216 71.2501 120.014 70.6314 119.608 70.2154C119.214 69.7994 118.654 69.5914 117.928 69.5914C117.384 69.5914 116.91 69.6981 116.504 69.9114C116.099 70.1247 115.784 70.4394 115.56 70.8554C115.347 71.2714 115.24 71.7887 115.24 72.4074V76.7754H113.704V64.9034H115.24V70.5834L114.936 69.9754C115.214 69.4207 115.64 68.9887 116.216 68.6794C116.792 68.3701 117.464 68.2154 118.232 68.2154ZM129.379 76.7754V74.9834L129.299 74.6474V71.5914C129.299 70.9407 129.107 70.4394 128.723 70.0874C128.35 69.7247 127.784 69.5434 127.027 69.5434C126.526 69.5434 126.035 69.6287 125.555 69.7994C125.075 69.9594 124.67 70.1781 124.339 70.4554L123.699 69.3034C124.136 68.9514 124.659 68.6847 125.267 68.5034C125.886 68.3114 126.531 68.2154 127.203 68.2154C128.366 68.2154 129.262 68.4981 129.891 69.0634C130.52 69.6287 130.835 70.4927 130.835 71.6554V76.7754H129.379ZM126.595 76.8714C125.966 76.8714 125.411 76.7647 124.931 76.5514C124.462 76.3381 124.099 76.0447 123.843 75.6714C123.587 75.2874 123.459 74.8554 123.459 74.3754C123.459 73.9167 123.566 73.5007 123.779 73.1274C124.003 72.7541 124.36 72.4554 124.851 72.2314C125.352 72.0074 126.024 71.8954 126.867 71.8954H129.555V72.9994H126.931C126.163 72.9994 125.646 73.1274 125.379 73.3834C125.112 73.6394 124.979 73.9487 124.979 74.3114C124.979 74.7274 125.144 75.0634 125.475 75.3194C125.806 75.5647 126.264 75.6874 126.851 75.6874C127.427 75.6874 127.928 75.5594 128.355 75.3034C128.792 75.0474 129.107 74.6741 129.299 74.1834L129.603 75.2394C129.4 75.7407 129.043 76.1407 128.531 76.4394C128.019 76.7274 127.374 76.8714 126.595 76.8714ZM128.435 67.0154C128.179 67.0154 127.95 66.9621 127.747 66.8554C127.555 66.7487 127.379 66.6261 127.219 66.4874C127.059 66.3381 126.904 66.2101 126.755 66.1034C126.606 65.9967 126.456 65.9434 126.307 65.9434C126.072 65.9434 125.88 66.0341 125.731 66.2154C125.592 66.3861 125.512 66.6261 125.491 66.9354H124.627C124.648 66.3381 124.798 65.8634 125.075 65.5114C125.352 65.1594 125.726 64.9834 126.195 64.9834C126.451 64.9834 126.68 65.0421 126.883 65.1594C127.086 65.2661 127.267 65.3941 127.427 65.5434C127.587 65.6821 127.736 65.8047 127.875 65.9114C128.024 66.0181 128.174 66.0714 128.323 66.0714C128.558 66.0714 128.75 65.9861 128.899 65.8154C129.048 65.6447 129.128 65.4101 129.139 65.1114H130.003C129.992 65.6767 129.843 66.1354 129.555 66.4874C129.278 66.8394 128.904 67.0154 128.435 67.0154Z" fill="#F3DDB8"/>
<path d="M108.119 13.7182C108.119 7.1685 102.262 0.315991 102.262 2.37123C102.262 4.42646 103.345 31.7218 103.345 31.7218L102.262 49.5711C102.262 50.7885 103.286 51.7752 104.55 51.7752C105.813 51.7752 106.838 50.7885 106.838 49.5711L106.233 31.6193C106.233 31.6193 108.119 20.2678 108.119 13.7182Z" stroke="#F3DDB8" stroke-width="2.56" stroke-miterlimit="10"/>
<path d="M45.5484 3.18701C45.5484 3.18701 45.6759 7.76939 45.6759 12.1201C45.6759 15.3832 44.6472 17.4324 43.1812 18.2531L43.2138 49.5716C43.2138 50.7889 42.1895 51.7757 40.926 51.7757C39.6624 51.7757 38.6381 50.7889 38.6381 49.5716L39.5656 18.2596C38.0934 17.4432 37.0593 15.3917 37.0593 12.1201C37.0593 7.76939 37.1869 3.18701 37.1869 3.18701" stroke="#F3DDB8" stroke-width="2.56" stroke-miterlimit="10" stroke-linecap="round" stroke-linejoin="round"/>
<path d="M41.3678 3.18701V13.7502" stroke="#F3DDB8" stroke-width="2.56" stroke-miterlimit="10" stroke-linecap="round" stroke-linejoin="round"/>
<path d="M73.6644 46.3617C86.2733 46.3617 96.4949 36.5141 96.4949 24.3664C96.4949 12.2187 86.2733 2.37109 73.6644 2.37109C61.0555 2.37109 50.834 12.2187 50.834 24.3664C50.834 36.5141 61.0555 46.3617 73.6644 46.3617Z" stroke="#F3DDB8" stroke-width="2.56" stroke-miterlimit="10" stroke-linecap="round" stroke-linejoin="round"/>
<path d="M73.6691 37.8024C81.3447 37.8024 87.567 31.8078 87.567 24.4129C87.567 17.0181 81.3447 11.0234 73.6691 11.0234C65.9935 11.0234 59.7712 17.0181 59.7712 24.4129C59.7712 31.8078 65.9935 37.8024 73.6691 37.8024Z" stroke="#F3DDB8" stroke-width="2.56" stroke-miterlimit="10" stroke-linecap="round" stroke-linejoin="round"/>
</svg>
