<svg width="80" height="73" viewBox="0 0 80 73" fill="none" xmlns="http://www.w3.org/2000/svg">
<path fill-rule="evenodd" clip-rule="evenodd" d="M36.8417 5.57446C40.044 5.57446 42.6359 8.01118 42.6359 10.9354C42.6359 13.8589 40.044 16.2956 36.8417 16.2956C33.6394 16.2956 30.9709 13.8589 30.9709 10.9354C30.9709 8.01118 33.6401 5.57446 36.8417 5.57446ZM37.2231 16.7831C39.4265 16.7204 41.1299 17.9722 42.0263 19.2898L48.1253 28.5492L58.7993 32.6568C61.8484 33.8394 60.4 37.5295 56.9695 36.6944C56.8467 36.6182 56.7194 36.5484 56.588 36.4853L49.4213 50.9657C49.4213 50.9657 51.7083 55.7699 54.6058 61.2008C57.4267 66.7002 50.5648 69.0677 48.0487 63.9851L45.5334 58.8333L41.8738 66.1435L40.3489 65.5168L44.6181 57.0232L37.4514 42.7519C37.1465 42.8212 36.8417 42.7519 36.4603 42.7519C36.4603 42.7519 28.15 60.0167 25.8621 64.5425C23.6517 69.0677 17.0954 66.3526 19.3058 61.896C21.5171 57.4408 32.0386 35.7894 32.0386 35.7894L24.2179 35.9062C23.0333 35.9156 22.7498 35.7432 22.6748 34.9327C22.554 32.7909 22.3471 27.7516 22.8896 25.4158C23.5893 22.4051 24.0071 19.0914 26.3202 18.1057C28.6341 17.1199 32.6483 19.8465 32.6483 19.8465C33.2579 18.0364 35.1643 16.7831 37.2231 16.7831ZM41.9497 27.6434V35.9992L48.5068 49.0878L55.0631 35.9293L45.5334 32.3092C45.0754 32.1 44.6947 31.8217 44.3891 31.4041L41.9497 27.6434Z" fill="#F3DDB8"/>
</svg>
