<svg xmlns="http://www.w3.org/2000/svg" xmlns:xlink="http://www.w3.org/1999/xlink" width="300" zoomAndPan="magnify" viewBox="0 0 375 112.499997" height="150" preserveAspectRatio="xMidYMid meet" version="1.0"><defs><g/><clipPath id="bedf522a0e"><path d="M 1 20 L 140 20 L 140 111.933594 L 1 111.933594 Z M 1 20 " clip-rule="nonzero"/></clipPath><clipPath id="60118233fa"><path d="M 1 82.214844 L 140 82.214844 L 140 111.933594 L 1 111.933594 Z M 1 82.214844 " clip-rule="nonzero"/></clipPath></defs><g fill="#202020" fill-opacity="1"><g transform="translate(149.16836, 104.086258)"><g><path d="M 1.015625 -10.109375 L 1.671875 -10.109375 C 3.410156 -10.109375 4.84375 -9.609375 5.96875 -8.609375 C 6.945312 -7.628906 7.4375 -6.441406 7.4375 -5.046875 C 7.4375 -3.660156 6.953125 -2.472656 5.984375 -1.484375 C 4.867188 -0.492188 3.429688 0 1.671875 0 L 1.015625 0 Z M 5.234375 -8.171875 C 4.335938 -9.003906 3.234375 -9.4375 1.921875 -9.46875 L 1.921875 -0.65625 C 3.234375 -0.6875 4.335938 -1.113281 5.234375 -1.9375 C 5.546875 -2.226562 5.796875 -2.535156 5.984375 -2.859375 C 6.160156 -3.179688 6.289062 -3.523438 6.375 -3.890625 C 6.46875 -4.253906 6.515625 -4.640625 6.515625 -5.046875 C 6.515625 -6.253906 6.085938 -7.296875 5.234375 -8.171875 Z M 5.234375 -8.171875 "/></g></g></g><g fill="#202020" fill-opacity="1"><g transform="translate(160.796836, 104.086258)"><g><path d="M 6.234375 0.171875 C 4.671875 0.171875 3.328125 -0.351562 2.203125 -1.40625 C 1.140625 -2.457031 0.609375 -3.6875 0.609375 -5.09375 C 0.609375 -6.5 1.144531 -7.71875 2.21875 -8.75 C 3.375 -9.769531 4.753906 -10.28125 6.359375 -10.28125 C 7.960938 -10.28125 9.332031 -9.769531 10.46875 -8.75 C 11.53125 -7.726562 12.0625 -6.507812 12.0625 -5.09375 C 12.0625 -3.675781 11.535156 -2.445312 10.484375 -1.40625 C 9.359375 -0.351562 8.007812 0.171875 6.4375 0.171875 Z M 9.765625 -1.984375 C 10.691406 -2.835938 11.15625 -3.863281 11.15625 -5.0625 C 11.15625 -6.257812 10.695312 -7.285156 9.78125 -8.140625 C 8.820312 -8.992188 7.675781 -9.421875 6.34375 -9.421875 C 5.007812 -9.421875 3.863281 -8.992188 2.90625 -8.140625 C 1.988281 -7.285156 1.53125 -6.257812 1.53125 -5.0625 C 1.53125 -3.863281 1.988281 -2.835938 2.90625 -1.984375 C 3.863281 -1.117188 5.003906 -0.6875 6.328125 -0.6875 C 7.660156 -0.6875 8.804688 -1.117188 9.765625 -1.984375 Z M 9.765625 -1.984375 "/></g></g></g><g fill="#202020" fill-opacity="1"><g transform="translate(177.05908, 104.086258)"><g/></g></g><g fill="#202020" fill-opacity="1"><g transform="translate(185.373856, 104.086258)"><g><path d="M 1.078125 -10.109375 L 2 -10.109375 L 2 0 L 1.078125 0 Z M 1.078125 -10.109375 "/></g></g></g><g fill="#202020" fill-opacity="1"><g transform="translate(192.045264, 104.086258)"><g><path d="M 1.015625 -10.109375 L 1.828125 -10.109375 C 2.878906 -10.109375 3.859375 -9.78125 4.765625 -9.125 C 5.472656 -8.46875 5.828125 -7.691406 5.828125 -6.796875 C 5.828125 -6.359375 5.734375 -5.941406 5.546875 -5.546875 C 5.359375 -5.160156 5.09375 -4.804688 4.75 -4.484375 C 4.5625 -4.347656 4.363281 -4.226562 4.15625 -4.125 C 3.957031 -4.019531 3.753906 -3.925781 3.546875 -3.84375 C 3.335938 -3.757812 3.128906 -3.691406 2.921875 -3.640625 C 2.710938 -3.597656 2.523438 -3.5625 2.359375 -3.53125 L 5.953125 -0.375 L 6.34375 0 L 5.109375 0 L 5.046875 -0.0625 L 2.328125 -2.40625 L 1.921875 -2.859375 L 1.921875 0 L 1.015625 0 Z M 1.921875 -9.484375 L 1.921875 -4.28125 C 2.253906 -4.28125 2.585938 -4.347656 2.921875 -4.484375 C 3.296875 -4.609375 3.648438 -4.800781 3.984375 -5.0625 C 4.609375 -5.570312 4.921875 -6.175781 4.921875 -6.875 C 4.921875 -7.226562 4.851562 -7.554688 4.71875 -7.859375 C 4.5625 -8.160156 4.304688 -8.445312 3.953125 -8.71875 C 3.296875 -9.207031 2.617188 -9.460938 1.921875 -9.484375 Z M 1.921875 -9.484375 "/></g></g></g><g fill="#202020" fill-opacity="1"><g transform="translate(202.07077, 104.086258)"><g><path d="M 6.046875 -10.65625 L 6.28125 -10.21875 L 11.5625 -0.328125 L 11.734375 0 L 10.734375 0 L 10.671875 -0.140625 L 8.734375 -3.859375 L 3.296875 -3.859375 L 1.421875 -0.140625 L 1.34375 0 L 0.40625 0 L 0.5625 -0.328125 L 5.84375 -10.21875 Z M 8.3125 -4.484375 L 6.015625 -8.890625 L 3.734375 -4.484375 Z M 8.3125 -4.484375 "/></g></g></g><g fill="#202020" fill-opacity="1"><g transform="translate(217.511326, 104.086258)"><g><path d="M 1.015625 -10.109375 L 2.046875 -10.109375 L 6.671875 -1.078125 L 11.3125 -10.109375 L 12.328125 -10.109375 L 12.328125 0 L 11.40625 0 L 11.40625 -8.8125 L 6.640625 0.484375 L 1.890625 -8.796875 L 1.890625 0 L 1.015625 0 Z M 1.015625 -10.109375 "/></g></g></g><g fill="#202020" fill-opacity="1"><g transform="translate(234.433618, 104.086258)"><g/></g></g><g fill="#202020" fill-opacity="1"><g transform="translate(242.748391, 104.086258)"><g><path d="M 1.015625 -10.109375 L 5.109375 -10.109375 L 5.109375 -9.25 L 1.921875 -9.25 L 1.921875 -4.453125 L 4.578125 -4.453125 L 4.578125 -3.59375 L 1.921875 -3.59375 L 1.921875 -0.859375 L 5.109375 -0.859375 L 5.109375 0 L 1.015625 0 Z M 1.015625 -10.109375 "/></g></g></g><g fill="#202020" fill-opacity="1"><g transform="translate(251.790569, 104.086258)"><g/></g></g><g fill="#202020" fill-opacity="1"><g transform="translate(260.105342, 104.086258)"><g><path d="M 1.015625 -10.109375 L 1.671875 -10.109375 C 3.410156 -10.109375 4.84375 -9.609375 5.96875 -8.609375 C 6.945312 -7.628906 7.4375 -6.441406 7.4375 -5.046875 C 7.4375 -3.660156 6.953125 -2.472656 5.984375 -1.484375 C 4.867188 -0.492188 3.429688 0 1.671875 0 L 1.015625 0 Z M 5.234375 -8.171875 C 4.335938 -9.003906 3.234375 -9.4375 1.921875 -9.46875 L 1.921875 -0.65625 C 3.234375 -0.6875 4.335938 -1.113281 5.234375 -1.9375 C 5.546875 -2.226562 5.796875 -2.535156 5.984375 -2.859375 C 6.160156 -3.179688 6.289062 -3.523438 6.375 -3.890625 C 6.46875 -4.253906 6.515625 -4.640625 6.515625 -5.046875 C 6.515625 -6.253906 6.085938 -7.296875 5.234375 -8.171875 Z M 5.234375 -8.171875 "/></g></g></g><g fill="#202020" fill-opacity="1"><g transform="translate(271.733815, 104.086258)"><g><path d="M 6.046875 -10.65625 L 6.28125 -10.21875 L 11.5625 -0.328125 L 11.734375 0 L 10.734375 0 L 10.671875 -0.140625 L 8.734375 -3.859375 L 3.296875 -3.859375 L 1.421875 -0.140625 L 1.34375 0 L 0.40625 0 L 0.5625 -0.328125 L 5.84375 -10.21875 Z M 8.3125 -4.484375 L 6.015625 -8.890625 L 3.734375 -4.484375 Z M 8.3125 -4.484375 "/></g></g></g><g fill="#202020" fill-opacity="1"><g transform="translate(287.174371, 104.086258)"><g/></g></g><g fill="#202020" fill-opacity="1"><g transform="translate(295.489144, 104.086258)"><g><path d="M 6.046875 -10.65625 L 6.28125 -10.21875 L 11.5625 -0.328125 L 11.734375 0 L 10.734375 0 L 10.671875 -0.140625 L 8.734375 -3.859375 L 3.296875 -3.859375 L 1.421875 -0.140625 L 1.34375 0 L 0.40625 0 L 0.5625 -0.328125 L 5.84375 -10.21875 Z M 8.3125 -4.484375 L 6.015625 -8.890625 L 3.734375 -4.484375 Z M 8.3125 -4.484375 "/></g></g></g><g fill="#202020" fill-opacity="1"><g transform="translate(310.9297, 104.086258)"><g><path d="M 8.921875 -10.109375 L 9.796875 -10.109375 L 9.796875 0.578125 L 9.375 0.0625 L 1.875 -8.578125 L 1.875 0 L 1.015625 0 L 1.015625 -10.6875 L 1.421875 -10.1875 L 8.921875 -1.546875 Z M 8.921875 -10.109375 "/></g></g></g><g fill="#202020" fill-opacity="1"><g transform="translate(325.319575, 104.086258)"><g><path d="M 5.046875 -3.609375 L 5.046875 -4.484375 L 9.546875 -4.484375 L 9.546875 -0.65625 L 9.4375 -0.59375 C 8.613281 -0.101562 7.644531 0.140625 6.53125 0.140625 L 6.359375 0.140625 C 6.015625 0.140625 5.671875 0.109375 5.328125 0.046875 C 4.992188 -0.00390625 4.664062 -0.0820312 4.34375 -0.1875 C 4.019531 -0.289062 3.707031 -0.425781 3.40625 -0.59375 C 2.507812 -1.082031 1.816406 -1.726562 1.328125 -2.53125 C 0.847656 -3.332031 0.609375 -4.1875 0.609375 -5.09375 C 0.609375 -6.519531 1.144531 -7.75 2.21875 -8.78125 C 3.394531 -9.800781 4.804688 -10.3125 6.453125 -10.3125 C 7.535156 -10.3125 8.523438 -10.050781 9.421875 -9.53125 L 9.546875 -9.46875 L 9.546875 -8.375 L 9.1875 -8.625 C 8.375 -9.175781 7.460938 -9.453125 6.453125 -9.453125 C 5.078125 -9.453125 3.898438 -9.023438 2.921875 -8.171875 C 1.992188 -7.316406 1.53125 -6.289062 1.53125 -5.09375 C 1.53125 -3.894531 1.992188 -2.867188 2.921875 -2.015625 C 3.898438 -1.148438 5.078125 -0.71875 6.453125 -0.71875 C 7.171875 -0.71875 7.894531 -0.863281 8.625 -1.15625 L 8.625 -3.609375 Z M 5.046875 -3.609375 "/></g></g></g><g fill="#202020" fill-opacity="1"><g transform="translate(339.197579, 104.086258)"><g><path d="M 1.015625 -10.109375 L 5.109375 -10.109375 L 5.109375 -9.25 L 1.921875 -9.25 L 1.921875 -4.453125 L 4.578125 -4.453125 L 4.578125 -3.59375 L 1.921875 -3.59375 L 1.921875 -0.859375 L 5.109375 -0.859375 L 5.109375 0 L 1.015625 0 Z M 1.015625 -10.109375 "/></g></g></g><g fill="#202020" fill-opacity="1"><g transform="translate(348.239757, 104.086258)"><g><path d="M 1.921875 -10.109375 L 1.921875 -0.859375 L 5.0625 -0.859375 L 5.0625 0 L 1.015625 0 L 1.015625 -10.109375 Z M 1.921875 -10.109375 "/></g></g></g><g fill="#202020" fill-opacity="1"><g transform="translate(357.160693, 104.086258)"><g><path d="M 6.046875 -10.65625 L 6.28125 -10.21875 L 11.5625 -0.328125 L 11.734375 0 L 10.734375 0 L 10.671875 -0.140625 L 8.734375 -3.859375 L 3.296875 -3.859375 L 1.421875 -0.140625 L 1.34375 0 L 0.40625 0 L 0.5625 -0.328125 L 5.84375 -10.21875 Z M 8.3125 -4.484375 L 6.015625 -8.890625 L 3.734375 -4.484375 Z M 8.3125 -4.484375 "/></g></g></g><g fill="#6c884d" fill-opacity="1"><g transform="translate(149.16836, 82.214239)"><g><path d="M 16.117188 0.710938 C 20.746094 0.710938 24.863281 -1.679688 28.21875 -5.492188 L 27.203125 -11.085938 L 25.269531 -11.085938 C 23.492188 -5.1875 20.183594 -1.882812 16.472656 -1.882812 C 12.304688 -1.882812 8.289062 -7.625 8.289062 -20.441406 C 8.289062 -31.523438 12.609375 -36.761719 16.523438 -36.761719 C 19.929688 -36.761719 22.523438 -33.964844 22.878906 -28.523438 L 24.964844 -28.523438 L 27.203125 -32.949219 C 24.660156 -37.269531 20.898438 -39.304688 16.472656 -39.304688 C 8.238281 -39.304688 1.015625 -32.386719 1.015625 -20.082031 C 1.015625 -6.457031 7.984375 0.710938 16.117188 0.710938 Z M 16.117188 0.710938 "/></g></g></g><g fill="#6c884d" fill-opacity="1"><g transform="translate(179.110766, 82.214239)"><g><path d="M 19.625 -39.203125 C 15.101562 -39.203125 9.863281 -37.421875 5.746094 -34.066406 L 6.761719 -28.015625 L 8.898438 -28.015625 C 10.269531 -33.304688 14.289062 -36.203125 17.492188 -36.203125 C 19.929688 -36.203125 22.015625 -34.523438 22.015625 -31.066406 L 22.015625 -28.269531 C 14.746094 -23.492188 1.523438 -25.929688 1.523438 -10.421875 C 1.523438 -3.253906 5.898438 0.710938 12 0.710938 C 15.558594 0.710938 19.472656 -1.117188 22.015625 -6.050781 L 22.015625 0 L 29.386719 0 L 29.386719 -31.015625 C 29.386719 -36.609375 25.015625 -39.203125 19.625 -39.203125 Z M 13.878906 -3.152344 C 10.929688 -3.152344 8.898438 -5.949219 8.898438 -11.1875 C 8.898438 -22.320312 15 -21.40625 22.015625 -25.574219 L 22.015625 -10.675781 C 19.980469 -6.152344 16.828125 -3.152344 13.878906 -3.152344 Z M 13.878906 -3.152344 "/></g></g></g><g fill="#6c884d" fill-opacity="1"><g transform="translate(210.832431, 82.214239)"><g><path d="M 15.355469 0.710938 C 21.40625 0.710938 27.507812 -2.644531 27.863281 -9.609375 L 27.863281 -10.929688 C 27.203125 -22.523438 7.832031 -26.03125 7.832031 -32.183594 C 7.832031 -35.082031 10.371094 -36.863281 13.371094 -36.863281 C 17.082031 -36.863281 21.710938 -34.015625 23.183594 -27.914062 L 25.878906 -27.914062 L 26.898438 -33.507812 C 24.660156 -37.21875 19.21875 -39.253906 14.1875 -39.253906 C 8.339844 -39.253906 2.390625 -36.355469 2.390625 -30.101562 C 2.390625 -29.742188 2.441406 -29.386719 2.492188 -28.929688 C 3.609375 -19.269531 21.710938 -17.132812 22.320312 -8.238281 C 22.625 -3.964844 19.523438 -1.78125 16.269531 -1.78125 C 12.253906 -1.78125 7.421875 -5.1875 6 -12.203125 L 3.40625 -12.203125 L 2.390625 -6.203125 C 5.136719 -1.578125 10.371094 0.710938 15.355469 0.710938 Z M 15.355469 0.710938 "/></g></g></g><g fill="#6c884d" fill-opacity="1"><g transform="translate(240.215641, 82.214239)"><g><path d="M 19.625 -39.203125 C 15.101562 -39.203125 9.863281 -37.421875 5.746094 -34.066406 L 6.761719 -28.015625 L 8.898438 -28.015625 C 10.269531 -33.304688 14.289062 -36.203125 17.492188 -36.203125 C 19.929688 -36.203125 22.015625 -34.523438 22.015625 -31.066406 L 22.015625 -28.269531 C 14.746094 -23.492188 1.523438 -25.929688 1.523438 -10.421875 C 1.523438 -3.253906 5.898438 0.710938 12 0.710938 C 15.558594 0.710938 19.472656 -1.117188 22.015625 -6.050781 L 22.015625 0 L 29.386719 0 L 29.386719 -31.015625 C 29.386719 -36.609375 25.015625 -39.203125 19.625 -39.203125 Z M 13.878906 -3.152344 C 10.929688 -3.152344 8.898438 -5.949219 8.898438 -11.1875 C 8.898438 -22.320312 15 -21.40625 22.015625 -25.574219 L 22.015625 -10.675781 C 19.980469 -6.152344 16.828125 -3.152344 13.878906 -3.152344 Z M 13.878906 -3.152344 "/></g></g></g><path fill="#d6a85a" d="M 69.871094 26.070312 C 68.203125 37.886719 57.277344 46.113281 45.460938 44.445312 C 33.648438 42.777344 25.421875 31.851562 27.089844 20.039062 C 28.753906 8.222656 39.683594 -0.00390625 51.496094 1.664062 C 63.3125 3.328125 71.535156 14.257812 69.871094 26.070312 Z M 69.871094 26.070312 " fill-opacity="1" fill-rule="nonzero"/><g clip-path="url(#bedf522a0e)"><path fill="#6c884d" d="M 17.730469 100.96875 C 12.453125 100.917969 7.160156 100.394531 1.988281 99.414062 C 1.371094 99.296875 0.964844 98.703125 1.082031 98.085938 C 1.199219 97.46875 1.792969 97.0625 2.410156 97.179688 C 7.449219 98.136719 12.609375 98.648438 17.75 98.695312 C 22.5625 98.742188 26.363281 98.777344 31.355469 97.75 C 34.960938 97.007812 37.261719 96.097656 39.292969 95.289062 C 41.984375 94.222656 44.3125 93.296875 48.507812 93.136719 C 51.585938 93.019531 54.832031 93.335938 58.164062 94.078125 C 60.542969 94.609375 62.476562 95.308594 64.34375 95.984375 C 68.210938 97.378906 71.863281 98.695312 79.367188 98.695312 C 86.871094 98.695312 90.523438 97.378906 94.390625 95.984375 C 98.269531 94.582031 102.28125 93.136719 110.183594 93.136719 C 113.171875 93.136719 116.585938 93.46875 119.789062 94.078125 C 122.960938 94.679688 126.105469 95.574219 129.128906 96.738281 C 129.714844 96.964844 130.003906 97.621094 129.78125 98.207031 C 129.554688 98.792969 128.898438 99.085938 128.3125 98.859375 C 125.414062 97.746094 122.40625 96.886719 119.363281 96.3125 C 115.226562 95.527344 111.835938 95.40625 110.183594 95.40625 C 102.679688 95.40625 99.027344 96.726562 95.160156 98.121094 C 91.28125 99.519531 87.269531 100.96875 79.367188 100.96875 C 71.464844 100.96875 67.453125 99.519531 63.574219 98.121094 C 61.6875 97.441406 59.90625 96.796875 57.667969 96.296875 C 54.53125 95.597656 51.476562 95.296875 48.597656 95.40625 C 44.789062 95.554688 42.730469 96.371094 40.128906 97.402344 C 38.011719 98.242188 35.613281 99.195312 31.8125 99.976562 C 27.609375 100.84375 24.132812 100.988281 20.460938 100.988281 C 19.566406 100.988281 18.660156 100.976562 17.730469 100.96875 Z M 129.125 108.492188 C 125.046875 106.949219 120.800781 105.792969 116.503906 105.058594 C 113.3125 104.507812 110.992188 104.148438 107.96875 104.148438 C 100.796875 104.148438 97.160156 105.605469 93.644531 107.011719 C 90.171875 108.398438 86.894531 109.710938 80.164062 109.710938 C 73.429688 109.710938 70.152344 108.398438 66.683594 107.011719 C 63.164062 105.605469 59.527344 104.148438 52.355469 104.148438 C 45.1875 104.148438 41.550781 105.605469 38.035156 107.011719 C 34.5625 108.398438 31.285156 109.710938 24.554688 109.710938 C 17.441406 109.710938 14.140625 109.164062 10.84375 108.21875 C 10.242188 108.046875 9.613281 108.394531 9.441406 109 C 9.265625 109.601562 9.617188 110.230469 10.21875 110.40625 C 13.710938 111.40625 17.175781 111.984375 24.554688 111.984375 C 31.722656 111.984375 35.359375 110.527344 38.878906 109.121094 C 42.347656 107.734375 45.625 106.421875 52.355469 106.421875 C 59.089844 106.421875 62.367188 107.734375 65.839844 109.121094 C 69.355469 110.527344 72.992188 111.984375 80.164062 111.984375 C 87.332031 111.984375 90.96875 110.527344 94.488281 109.121094 C 97.957031 107.734375 101.234375 106.421875 107.96875 106.421875 C 110.8125 106.421875 113.042969 106.769531 116.121094 107.296875 C 120.277344 108.007812 124.378906 109.128906 128.320312 110.617188 C 128.910156 110.839844 129.5625 110.542969 129.785156 109.957031 C 130.007812 109.371094 129.710938 108.714844 129.125 108.492188 Z M 139.691406 54.40625 C 139.476562 54.742188 139.109375 54.929688 138.734375 54.929688 C 138.527344 54.929688 138.3125 54.871094 138.125 54.75 L 129.75 49.378906 L 129.75 87.394531 C 129.75 87.398438 129.75 87.398438 129.75 87.402344 C 129.75 87.40625 129.746094 87.410156 129.746094 87.417969 C 129.746094 87.488281 129.742188 87.554688 129.726562 87.625 C 129.710938 87.691406 129.691406 87.757812 129.667969 87.820312 C 129.664062 87.824219 129.664062 87.832031 129.660156 87.839844 C 129.632812 87.910156 129.59375 87.976562 129.554688 88.039062 C 129.53125 88.074219 129.5 88.105469 129.472656 88.136719 C 129.453125 88.160156 129.4375 88.183594 129.414062 88.207031 C 129.378906 88.242188 129.34375 88.269531 129.304688 88.296875 C 129.285156 88.3125 129.265625 88.332031 129.242188 88.347656 C 129.207031 88.371094 129.164062 88.390625 129.125 88.410156 C 129.101562 88.421875 129.078125 88.4375 129.050781 88.449219 C 129 88.472656 128.945312 88.484375 128.890625 88.5 C 128.875 88.503906 128.859375 88.511719 128.839844 88.515625 C 128.765625 88.53125 128.691406 88.539062 128.613281 88.539062 C 128.609375 88.539062 128.601562 88.535156 128.597656 88.535156 C 128.527344 88.535156 128.460938 88.53125 128.390625 88.515625 C 128.324219 88.503906 128.257812 88.480469 128.195312 88.457031 C 128.1875 88.453125 128.183594 88.453125 128.175781 88.449219 C 128.175781 88.449219 128.171875 88.449219 128.171875 88.449219 C 128.171875 88.449219 128.171875 88.449219 128.167969 88.449219 C 125.191406 87.203125 122.078125 86.257812 118.914062 85.640625 C 115.945312 85.058594 112.90625 84.753906 110.121094 84.753906 C 102.886719 84.753906 99.367188 86.070312 95.640625 87.460938 C 91.886719 88.863281 88.007812 90.3125 80.363281 90.3125 C 72.71875 90.3125 68.835938 88.863281 65.085938 87.460938 C 61.359375 86.070312 57.835938 84.753906 50.601562 84.753906 C 43.371094 84.753906 39.847656 86.070312 36.121094 87.460938 C 32.371094 88.863281 28.492188 90.3125 20.84375 90.3125 C 12.964844 90.3125 9.269531 89.738281 5.546875 88.738281 C 5.519531 88.734375 5.496094 88.722656 5.472656 88.710938 C 5.4375 88.699219 5.398438 88.6875 5.363281 88.671875 C 5.328125 88.652344 5.292969 88.632812 5.257812 88.613281 C 5.226562 88.59375 5.199219 88.578125 5.167969 88.558594 C 5.128906 88.527344 5.097656 88.496094 5.0625 88.464844 C 5.046875 88.449219 5.027344 88.4375 5.011719 88.417969 C 5.003906 88.414062 5.003906 88.410156 5 88.402344 C 4.96875 88.371094 4.945312 88.335938 4.917969 88.300781 C 4.902344 88.273438 4.878906 88.25 4.863281 88.222656 C 4.84375 88.191406 4.832031 88.15625 4.8125 88.121094 C 4.800781 88.089844 4.78125 88.058594 4.769531 88.023438 C 4.757812 87.988281 4.75 87.953125 4.742188 87.917969 C 4.734375 87.882812 4.722656 87.847656 4.714844 87.8125 C 4.710938 87.777344 4.710938 87.738281 4.710938 87.703125 C 4.707031 87.667969 4.703125 87.628906 4.707031 87.59375 C 4.707031 87.558594 4.714844 87.527344 4.71875 87.496094 C 4.722656 87.453125 4.726562 87.410156 4.738281 87.367188 C 4.738281 87.363281 4.738281 87.355469 4.742188 87.347656 C 4.75 87.324219 4.761719 87.300781 4.769531 87.277344 C 4.78125 87.238281 4.796875 87.195312 4.8125 87.15625 C 4.828125 87.125 4.847656 87.09375 4.867188 87.0625 C 4.886719 87.03125 4.90625 86.996094 4.925781 86.96875 C 4.953125 86.933594 4.980469 86.902344 5.011719 86.871094 C 5.027344 86.851562 5.042969 86.832031 5.0625 86.8125 C 10.382812 81.824219 16.15625 77.519531 22.324219 73.917969 L 22.324219 46.773438 C 21.765625 46.839844 21.128906 46.996094 20.472656 47.328125 C 19.3125 47.914062 18.621094 48.769531 18.246094 49.378906 C 18.035156 49.730469 17.660156 49.921875 17.277344 49.921875 C 17.074219 49.921875 16.871094 49.867188 16.6875 49.753906 C 16.152344 49.429688 15.980469 48.726562 16.308594 48.191406 C 16.839844 47.332031 17.8125 46.128906 19.445312 45.300781 C 19.988281 45.027344 20.519531 44.835938 21.027344 44.707031 C 20.679688 44.453125 20.3125 44.226562 19.925781 44.042969 C 19.046875 43.621094 18.070312 43.386719 17.097656 43.363281 C 16.46875 43.347656 15.972656 42.824219 15.988281 42.199219 C 16.003906 41.570312 16.535156 41.078125 17.152344 41.089844 C 18.445312 41.121094 19.742188 41.433594 20.90625 41.992188 C 21.328125 42.191406 21.730469 42.429688 22.113281 42.691406 C 22.109375 42.148438 22.144531 41.605469 22.234375 41.066406 C 22.367188 40.25 22.605469 39.449219 22.945312 38.6875 C 23.203125 38.113281 23.871094 37.855469 24.445312 38.113281 C 25.019531 38.367188 25.277344 39.039062 25.019531 39.613281 C 24.761719 40.195312 24.578125 40.804688 24.476562 41.429688 C 24.402344 41.882812 24.375 42.339844 24.386719 42.796875 C 24.953125 42.390625 25.566406 42.054688 26.210938 41.804688 C 27.300781 41.382812 28.496094 41.195312 29.667969 41.261719 C 30.296875 41.296875 30.773438 41.835938 30.738281 42.460938 C 30.703125 43.089844 30.167969 43.566406 29.539062 43.53125 C 28.6875 43.480469 27.820312 43.617188 27.03125 43.921875 C 26.421875 44.160156 25.917969 44.472656 25.511719 44.792969 C 26.40625 45.105469 27.25 45.546875 28.019531 46.109375 C 28.867188 46.726562 29.605469 47.476562 30.21875 48.335938 C 30.582031 48.84375 30.460938 49.554688 29.949219 49.917969 C 29.75 50.0625 29.519531 50.128906 29.292969 50.128906 C 28.9375 50.128906 28.589844 49.964844 28.367188 49.652344 C 27.898438 48.992188 27.328125 48.417969 26.679688 47.945312 C 26.042969 47.480469 25.34375 47.121094 24.597656 46.878906 L 24.597656 72.632812 C 29.136719 70.148438 33.882812 68.03125 38.816406 66.308594 C 39.90625 65.929688 41 65.574219 42.105469 65.234375 C 42.101562 65.21875 42.097656 65.203125 42.097656 65.1875 L 42.097656 30.574219 C 41.304688 30.632812 40.363281 30.832031 39.378906 31.328125 C 37.875 32.089844 36.980469 33.199219 36.492188 33.992188 C 36.277344 34.34375 35.90625 34.535156 35.523438 34.535156 C 35.320312 34.535156 35.117188 34.480469 34.929688 34.367188 C 34.394531 34.039062 34.226562 33.339844 34.554688 32.804688 C 35.195312 31.761719 36.375 30.304688 38.351562 29.300781 C 39.21875 28.863281 40.058594 28.601562 40.835938 28.453125 C 40.257812 27.964844 39.625 27.550781 38.945312 27.226562 C 37.816406 26.683594 36.558594 26.382812 35.304688 26.351562 C 34.675781 26.335938 34.179688 25.8125 34.199219 25.1875 C 34.214844 24.558594 34.734375 24.0625 35.363281 24.078125 C 36.933594 24.117188 38.515625 24.496094 39.929688 25.175781 C 40.609375 25.5 41.253906 25.902344 41.855469 26.359375 C 41.804688 25.507812 41.847656 24.660156 41.984375 23.8125 C 42.144531 22.816406 42.4375 21.839844 42.851562 20.910156 C 43.105469 20.339844 43.777344 20.082031 44.351562 20.335938 C 44.925781 20.59375 45.179688 21.265625 44.925781 21.839844 C 44.589844 22.585938 44.355469 23.375 44.226562 24.175781 C 44.105469 24.933594 44.078125 25.699219 44.140625 26.464844 C 44.9375 25.832031 45.824219 25.316406 46.769531 24.949219 C 48.089844 24.4375 49.542969 24.210938 50.964844 24.292969 C 51.59375 24.328125 52.070312 24.863281 52.035156 25.492188 C 52 26.117188 51.464844 26.601562 50.835938 26.5625 C 49.734375 26.5 48.613281 26.671875 47.589844 27.070312 C 46.585938 27.457031 45.808594 28.003906 45.230469 28.523438 C 46.5 28.914062 47.683594 29.5 48.757812 30.285156 C 49.789062 31.039062 50.691406 31.949219 51.4375 32.996094 C 51.800781 33.507812 51.683594 34.21875 51.171875 34.582031 C 50.972656 34.726562 50.742188 34.792969 50.511719 34.792969 C 50.15625 34.792969 49.808594 34.628906 49.585938 34.316406 C 48.984375 33.46875 48.253906 32.730469 47.417969 32.121094 C 46.496094 31.449219 45.472656 30.953125 44.371094 30.640625 L 44.371094 64.566406 C 50.246094 62.914062 56.285156 61.835938 62.398438 61.34375 L 62.398438 49.195312 L 53.734375 54.75 C 53.207031 55.085938 52.503906 54.933594 52.167969 54.40625 C 51.828125 53.878906 51.980469 53.175781 52.507812 52.835938 L 95.316406 25.390625 C 95.691406 25.152344 96.167969 25.152344 96.542969 25.390625 L 139.351562 52.835938 C 139.878906 53.175781 140.03125 53.878906 139.691406 54.40625 Z M 50.601562 82.480469 C 55.972656 82.480469 59.480469 83.195312 62.398438 84.105469 L 62.398438 63.621094 C 54.59375 64.265625 46.917969 65.890625 39.566406 68.457031 C 27.957031 72.507812 17.410156 78.757812 8.179688 87.039062 C 11.167969 87.679688 14.667969 88.042969 20.84375 88.042969 C 28.078125 88.042969 31.601562 86.726562 35.328125 85.332031 C 39.078125 83.929688 42.957031 82.480469 50.601562 82.480469 Z M 127.476562 47.921875 L 95.929688 27.699219 L 64.667969 47.738281 L 64.667969 84.882812 C 65.078125 85.03125 65.480469 85.183594 65.878906 85.332031 C 69.609375 86.726562 73.128906 88.042969 80.363281 88.042969 C 87.597656 88.042969 91.117188 86.726562 94.84375 85.332031 C 98.597656 83.929688 102.476562 82.480469 110.121094 82.480469 C 113.050781 82.480469 116.242188 82.800781 119.347656 83.410156 C 122.113281 83.949219 124.839844 84.730469 127.476562 85.730469 Z M 97.796875 62.652344 L 97.796875 56.984375 C 97.796875 56.355469 98.304688 55.847656 98.929688 55.847656 L 107.839844 55.847656 C 108.46875 55.847656 108.976562 56.355469 108.976562 56.984375 L 108.976562 62.652344 C 108.976562 63.28125 108.46875 63.789062 107.839844 63.789062 L 98.929688 63.789062 C 98.304688 63.789062 97.796875 63.28125 97.796875 62.652344 Z M 100.066406 61.515625 L 106.703125 61.515625 L 106.703125 58.117188 L 100.066406 58.117188 Z M 94.050781 57.007812 L 94.050781 62.675781 C 94.050781 63.304688 93.542969 63.8125 92.917969 63.8125 L 84.007812 63.8125 C 83.378906 63.8125 82.871094 63.304688 82.871094 62.675781 L 82.871094 57.007812 C 82.871094 56.378906 83.378906 55.871094 84.007812 55.871094 L 92.917969 55.871094 C 93.542969 55.871094 94.050781 56.378906 94.050781 57.007812 Z M 91.78125 58.140625 L 85.144531 58.140625 L 85.144531 61.539062 L 91.78125 61.539062 Z M 97.796875 75.0625 L 97.796875 69.394531 C 97.796875 68.765625 98.304688 68.257812 98.929688 68.257812 L 107.839844 68.257812 C 108.46875 68.257812 108.976562 68.765625 108.976562 69.394531 L 108.976562 75.0625 C 108.976562 75.691406 108.46875 76.199219 107.839844 76.199219 L 98.929688 76.199219 C 98.304688 76.199219 97.796875 75.691406 97.796875 75.0625 Z M 100.066406 73.925781 L 106.703125 73.925781 L 106.703125 70.53125 L 100.066406 70.53125 Z M 94.050781 69.417969 L 94.050781 75.085938 C 94.050781 75.714844 93.542969 76.222656 92.917969 76.222656 L 84.007812 76.222656 C 83.378906 76.222656 82.871094 75.714844 82.871094 75.085938 L 82.871094 69.417969 C 82.871094 68.789062 83.378906 68.28125 84.007812 68.28125 L 92.917969 68.28125 C 93.542969 68.28125 94.050781 68.789062 94.050781 69.417969 Z M 91.78125 70.554688 L 85.144531 70.554688 L 85.144531 73.949219 L 91.78125 73.949219 Z M 91.78125 70.554688 " fill-opacity="1" fill-rule="nonzero"/></g><g clip-path="url(#60118233fa)"><path fill="#5ca1b0" d="M 17.730469 100.96875 C 12.453125 100.917969 7.160156 100.394531 1.988281 99.414062 C 1.371094 99.296875 0.964844 98.703125 1.082031 98.085938 C 1.199219 97.46875 1.792969 97.0625 2.410156 97.179688 C 7.449219 98.136719 12.609375 98.648438 17.75 98.695312 C 22.5625 98.742188 26.363281 98.777344 31.355469 97.75 C 34.960938 97.007812 37.261719 96.097656 39.292969 95.289062 C 41.984375 94.222656 44.3125 93.296875 48.507812 93.136719 C 51.585938 93.019531 54.832031 93.335938 58.164062 94.078125 C 60.542969 94.609375 62.476562 95.308594 64.34375 95.984375 C 68.210938 97.378906 71.863281 98.695312 79.367188 98.695312 C 86.871094 98.695312 90.523438 97.378906 94.390625 95.984375 C 98.269531 94.582031 102.28125 93.136719 110.183594 93.136719 C 113.171875 93.136719 116.585938 93.46875 119.789062 94.078125 C 122.960938 94.679688 126.105469 95.574219 129.128906 96.738281 C 129.714844 96.964844 130.003906 97.621094 129.78125 98.207031 C 129.554688 98.792969 128.898438 99.085938 128.3125 98.859375 C 125.414062 97.746094 122.40625 96.886719 119.363281 96.3125 C 115.226562 95.527344 111.835938 95.40625 110.183594 95.40625 C 102.679688 95.40625 99.027344 96.726562 95.160156 98.121094 C 91.28125 99.519531 87.269531 100.96875 79.367188 100.96875 C 71.464844 100.96875 67.453125 99.519531 63.574219 98.121094 C 61.6875 97.441406 59.90625 96.796875 57.667969 96.296875 C 54.53125 95.597656 51.476562 95.296875 48.597656 95.40625 C 44.789062 95.554688 42.730469 96.371094 40.128906 97.402344 C 38.011719 98.242188 35.613281 99.195312 31.8125 99.976562 C 27.609375 100.84375 24.132812 100.988281 20.460938 100.988281 C 19.566406 100.988281 18.660156 100.976562 17.730469 100.96875 Z M 129.125 108.492188 C 125.046875 106.949219 120.800781 105.792969 116.503906 105.058594 C 113.3125 104.507812 110.992188 104.148438 107.96875 104.148438 C 100.796875 104.148438 97.160156 105.605469 93.644531 107.011719 C 90.171875 108.398438 86.894531 109.710938 80.164062 109.710938 C 73.429688 109.710938 70.152344 108.398438 66.683594 107.011719 C 63.164062 105.605469 59.527344 104.148438 52.355469 104.148438 C 45.1875 104.148438 41.550781 105.605469 38.035156 107.011719 C 34.5625 108.398438 31.285156 109.710938 24.554688 109.710938 C 17.441406 109.710938 14.140625 109.164062 10.84375 108.21875 C 10.242188 108.046875 9.613281 108.394531 9.441406 109 C 9.265625 109.601562 9.617188 110.230469 10.21875 110.40625 C 13.710938 111.40625 17.175781 111.984375 24.554688 111.984375 C 31.722656 111.984375 35.359375 110.527344 38.878906 109.121094 C 42.347656 107.734375 45.625 106.421875 52.355469 106.421875 C 59.089844 106.421875 62.367188 107.734375 65.839844 109.121094 C 69.355469 110.527344 72.992188 111.984375 80.164062 111.984375 C 87.332031 111.984375 90.96875 110.527344 94.488281 109.121094 C 97.957031 107.734375 101.234375 106.421875 107.96875 106.421875 C 110.8125 106.421875 113.042969 106.769531 116.121094 107.296875 C 120.277344 108.007812 124.378906 109.128906 128.320312 110.617188 C 128.910156 110.839844 129.5625 110.542969 129.785156 109.957031 C 130.007812 109.371094 129.710938 108.714844 129.125 108.492188 Z M 139.691406 54.40625 C 139.476562 54.742188 139.109375 54.929688 138.734375 54.929688 C 138.527344 54.929688 138.3125 54.871094 138.125 54.75 L 129.75 49.378906 L 129.75 87.394531 C 129.75 87.398438 129.75 87.398438 129.75 87.402344 C 129.75 87.40625 129.746094 87.410156 129.746094 87.417969 C 129.746094 87.488281 129.742188 87.554688 129.726562 87.625 C 129.710938 87.691406 129.691406 87.757812 129.667969 87.820312 C 129.664062 87.824219 129.664062 87.832031 129.660156 87.839844 C 129.632812 87.910156 129.59375 87.976562 129.554688 88.039062 C 129.53125 88.074219 129.5 88.105469 129.472656 88.136719 C 129.453125 88.160156 129.4375 88.183594 129.414062 88.207031 C 129.378906 88.242188 129.34375 88.269531 129.304688 88.296875 C 129.285156 88.3125 129.265625 88.332031 129.242188 88.347656 C 129.207031 88.371094 129.164062 88.390625 129.125 88.410156 C 129.101562 88.421875 129.078125 88.4375 129.050781 88.449219 C 129 88.472656 128.945312 88.484375 128.890625 88.5 C 128.875 88.503906 128.859375 88.511719 128.839844 88.515625 C 128.765625 88.53125 128.691406 88.539062 128.613281 88.539062 C 128.609375 88.539062 128.601562 88.535156 128.597656 88.535156 C 128.527344 88.535156 128.460938 88.53125 128.390625 88.515625 C 128.324219 88.503906 128.257812 88.480469 128.195312 88.457031 C 128.1875 88.453125 128.183594 88.453125 128.175781 88.449219 C 128.175781 88.449219 128.171875 88.449219 128.171875 88.449219 C 128.171875 88.449219 128.171875 88.449219 128.167969 88.449219 C 125.191406 87.203125 122.078125 86.257812 118.914062 85.640625 C 115.945312 85.058594 112.90625 84.753906 110.121094 84.753906 C 102.886719 84.753906 99.367188 86.070312 95.640625 87.460938 C 91.886719 88.863281 88.007812 90.3125 80.363281 90.3125 C 72.71875 90.3125 68.835938 88.863281 65.085938 87.460938 C 61.359375 86.070312 57.835938 84.753906 50.601562 84.753906 C 43.371094 84.753906 39.847656 86.070312 36.121094 87.460938 C 32.371094 88.863281 28.492188 90.3125 20.84375 90.3125 C 12.964844 90.3125 9.269531 89.738281 5.546875 88.738281 C 5.519531 88.734375 5.496094 88.722656 5.472656 88.710938 C 5.4375 88.699219 5.398438 88.6875 5.363281 88.671875 C 5.328125 88.652344 5.292969 88.632812 5.257812 88.613281 C 5.226562 88.59375 5.199219 88.578125 5.167969 88.558594 C 5.128906 88.527344 5.097656 88.496094 5.0625 88.464844 C 5.046875 88.449219 5.027344 88.4375 5.011719 88.417969 C 5.003906 88.414062 5.003906 88.410156 5 88.402344 C 4.96875 88.371094 4.945312 88.335938 4.917969 88.300781 C 4.902344 88.273438 4.878906 88.25 4.863281 88.222656 C 4.84375 88.191406 4.832031 88.15625 4.8125 88.121094 C 4.800781 88.089844 4.78125 88.058594 4.769531 88.023438 C 4.757812 87.988281 4.75 87.953125 4.742188 87.917969 C 4.734375 87.882812 4.722656 87.847656 4.714844 87.8125 C 4.710938 87.777344 4.710938 87.738281 4.710938 87.703125 C 4.707031 87.667969 4.703125 87.628906 4.707031 87.59375 C 4.707031 87.558594 4.714844 87.527344 4.71875 87.496094 C 4.722656 87.453125 4.726562 87.410156 4.738281 87.367188 C 4.738281 87.363281 4.738281 87.355469 4.742188 87.347656 C 4.75 87.324219 4.761719 87.300781 4.769531 87.277344 C 4.78125 87.238281 4.796875 87.195312 4.8125 87.15625 C 4.828125 87.125 4.847656 87.09375 4.867188 87.0625 C 4.886719 87.03125 4.90625 86.996094 4.925781 86.96875 C 4.953125 86.933594 4.980469 86.902344 5.011719 86.871094 C 5.027344 86.851562 5.042969 86.832031 5.0625 86.8125 C 10.382812 81.824219 16.15625 77.519531 22.324219 73.917969 L 22.324219 46.773438 C 21.765625 46.839844 21.128906 46.996094 20.472656 47.328125 C 19.3125 47.914062 18.621094 48.769531 18.246094 49.378906 C 18.035156 49.730469 17.660156 49.921875 17.277344 49.921875 C 17.074219 49.921875 16.871094 49.867188 16.6875 49.753906 C 16.152344 49.429688 15.980469 48.726562 16.308594 48.191406 C 16.839844 47.332031 17.8125 46.128906 19.445312 45.300781 C 19.988281 45.027344 20.519531 44.835938 21.027344 44.707031 C 20.679688 44.453125 20.3125 44.226562 19.925781 44.042969 C 19.046875 43.621094 18.070312 43.386719 17.097656 43.363281 C 16.46875 43.347656 15.972656 42.824219 15.988281 42.199219 C 16.003906 41.570312 16.535156 41.078125 17.152344 41.089844 C 18.445312 41.121094 19.742188 41.433594 20.90625 41.992188 C 21.328125 42.191406 21.730469 42.429688 22.113281 42.691406 C 22.109375 42.148438 22.144531 41.605469 22.234375 41.066406 C 22.367188 40.25 22.605469 39.449219 22.945312 38.6875 C 23.203125 38.113281 23.871094 37.855469 24.445312 38.113281 C 25.019531 38.367188 25.277344 39.039062 25.019531 39.613281 C 24.761719 40.195312 24.578125 40.804688 24.476562 41.429688 C 24.402344 41.882812 24.375 42.339844 24.386719 42.796875 C 24.953125 42.390625 25.566406 42.054688 26.210938 41.804688 C 27.300781 41.382812 28.496094 41.195312 29.667969 41.261719 C 30.296875 41.296875 30.773438 41.835938 30.738281 42.460938 C 30.703125 43.089844 30.167969 43.566406 29.539062 43.53125 C 28.6875 43.480469 27.820312 43.617188 27.03125 43.921875 C 26.421875 44.160156 25.917969 44.472656 25.511719 44.792969 C 26.40625 45.105469 27.25 45.546875 28.019531 46.109375 C 28.867188 46.726562 29.605469 47.476562 30.21875 48.335938 C 30.582031 48.84375 30.460938 49.554688 29.949219 49.917969 C 29.75 50.0625 29.519531 50.128906 29.292969 50.128906 C 28.9375 50.128906 28.589844 49.964844 28.367188 49.652344 C 27.898438 48.992188 27.328125 48.417969 26.679688 47.945312 C 26.042969 47.480469 25.34375 47.121094 24.597656 46.878906 L 24.597656 72.632812 C 29.136719 70.148438 33.882812 68.03125 38.816406 66.308594 C 39.90625 65.929688 41 65.574219 42.105469 65.234375 C 42.101562 65.21875 42.097656 65.203125 42.097656 65.1875 L 42.097656 30.574219 C 41.304688 30.632812 40.363281 30.832031 39.378906 31.328125 C 37.875 32.089844 36.980469 33.199219 36.492188 33.992188 C 36.277344 34.34375 35.90625 34.535156 35.523438 34.535156 C 35.320312 34.535156 35.117188 34.480469 34.929688 34.367188 C 34.394531 34.039062 34.226562 33.339844 34.554688 32.804688 C 35.195312 31.761719 36.375 30.304688 38.351562 29.300781 C 39.21875 28.863281 40.058594 28.601562 40.835938 28.453125 C 40.257812 27.964844 39.625 27.550781 38.945312 27.226562 C 37.816406 26.683594 36.558594 26.382812 35.304688 26.351562 C 34.675781 26.335938 34.179688 25.8125 34.199219 25.1875 C 34.214844 24.558594 34.734375 24.0625 35.363281 24.078125 C 36.933594 24.117188 38.515625 24.496094 39.929688 25.175781 C 40.609375 25.5 41.253906 25.902344 41.855469 26.359375 C 41.804688 25.507812 41.847656 24.660156 41.984375 23.8125 C 42.144531 22.816406 42.4375 21.839844 42.851562 20.910156 C 43.105469 20.339844 43.777344 20.082031 44.351562 20.335938 C 44.925781 20.59375 45.179688 21.265625 44.925781 21.839844 C 44.589844 22.585938 44.355469 23.375 44.226562 24.175781 C 44.105469 24.933594 44.078125 25.699219 44.140625 26.464844 C 44.9375 25.832031 45.824219 25.316406 46.769531 24.949219 C 48.089844 24.4375 49.542969 24.210938 50.964844 24.292969 C 51.59375 24.328125 52.070312 24.863281 52.035156 25.492188 C 52 26.117188 51.464844 26.601562 50.835938 26.5625 C 49.734375 26.5 48.613281 26.671875 47.589844 27.070312 C 46.585938 27.457031 45.808594 28.003906 45.230469 28.523438 C 46.5 28.914062 47.683594 29.5 48.757812 30.285156 C 49.789062 31.039062 50.691406 31.949219 51.4375 32.996094 C 51.800781 33.507812 51.683594 34.21875 51.171875 34.582031 C 50.972656 34.726562 50.742188 34.792969 50.511719 34.792969 C 50.15625 34.792969 49.808594 34.628906 49.585938 34.316406 C 48.984375 33.46875 48.253906 32.730469 47.417969 32.121094 C 46.496094 31.449219 45.472656 30.953125 44.371094 30.640625 L 44.371094 64.566406 C 50.246094 62.914062 56.285156 61.835938 62.398438 61.34375 L 62.398438 49.195312 L 53.734375 54.75 C 53.207031 55.085938 52.503906 54.933594 52.167969 54.40625 C 51.828125 53.878906 51.980469 53.175781 52.507812 52.835938 L 95.316406 25.390625 C 95.691406 25.152344 96.167969 25.152344 96.542969 25.390625 L 139.351562 52.835938 C 139.878906 53.175781 140.03125 53.878906 139.691406 54.40625 Z M 50.601562 82.480469 C 55.972656 82.480469 59.480469 83.195312 62.398438 84.105469 L 62.398438 63.621094 C 54.59375 64.265625 46.917969 65.890625 39.566406 68.457031 C 27.957031 72.507812 17.410156 78.757812 8.179688 87.039062 C 11.167969 87.679688 14.667969 88.042969 20.84375 88.042969 C 28.078125 88.042969 31.601562 86.726562 35.328125 85.332031 C 39.078125 83.929688 42.957031 82.480469 50.601562 82.480469 Z M 127.476562 47.921875 L 95.929688 27.699219 L 64.667969 47.738281 L 64.667969 84.882812 C 65.078125 85.03125 65.480469 85.183594 65.878906 85.332031 C 69.609375 86.726562 73.128906 88.042969 80.363281 88.042969 C 87.597656 88.042969 91.117188 86.726562 94.84375 85.332031 C 98.597656 83.929688 102.476562 82.480469 110.121094 82.480469 C 113.050781 82.480469 116.242188 82.800781 119.347656 83.410156 C 122.113281 83.949219 124.839844 84.730469 127.476562 85.730469 Z M 97.796875 62.652344 L 97.796875 56.984375 C 97.796875 56.355469 98.304688 55.847656 98.929688 55.847656 L 107.839844 55.847656 C 108.46875 55.847656 108.976562 56.355469 108.976562 56.984375 L 108.976562 62.652344 C 108.976562 63.28125 108.46875 63.789062 107.839844 63.789062 L 98.929688 63.789062 C 98.304688 63.789062 97.796875 63.28125 97.796875 62.652344 Z M 100.066406 61.515625 L 106.703125 61.515625 L 106.703125 58.117188 L 100.066406 58.117188 Z M 94.050781 57.007812 L 94.050781 62.675781 C 94.050781 63.304688 93.542969 63.8125 92.917969 63.8125 L 84.007812 63.8125 C 83.378906 63.8125 82.871094 63.304688 82.871094 62.675781 L 82.871094 57.007812 C 82.871094 56.378906 83.378906 55.871094 84.007812 55.871094 L 92.917969 55.871094 C 93.542969 55.871094 94.050781 56.378906 94.050781 57.007812 Z M 91.78125 58.140625 L 85.144531 58.140625 L 85.144531 61.539062 L 91.78125 61.539062 Z M 97.796875 75.0625 L 97.796875 69.394531 C 97.796875 68.765625 98.304688 68.257812 98.929688 68.257812 L 107.839844 68.257812 C 108.46875 68.257812 108.976562 68.765625 108.976562 69.394531 L 108.976562 75.0625 C 108.976562 75.691406 108.46875 76.199219 107.839844 76.199219 L 98.929688 76.199219 C 98.304688 76.199219 97.796875 75.691406 97.796875 75.0625 Z M 100.066406 73.925781 L 106.703125 73.925781 L 106.703125 70.53125 L 100.066406 70.53125 Z M 94.050781 69.417969 L 94.050781 75.085938 C 94.050781 75.714844 93.542969 76.222656 92.917969 76.222656 L 84.007812 76.222656 C 83.378906 76.222656 82.871094 75.714844 82.871094 75.085938 L 82.871094 69.417969 C 82.871094 68.789062 83.378906 68.28125 84.007812 68.28125 L 92.917969 68.28125 C 93.542969 68.28125 94.050781 68.789062 94.050781 69.417969 Z M 91.78125 70.554688 L 85.144531 70.554688 L 85.144531 73.949219 L 91.78125 73.949219 Z M 91.78125 70.554688 " fill-opacity="1" fill-rule="nonzero"/></g></svg>