<svg xmlns="http://www.w3.org/2000/svg" xmlns:xlink="http://www.w3.org/1999/xlink" width="85" zoomAndPan="magnify" viewBox="0 0 375 374.999991" height="85" preserveAspectRatio="xMidYMid meet" version="1.0"><defs><clipPath id="344b00229c"><path d="M 0 90 L 374.644531 90 L 374.644531 337.320312 L 0 337.320312 Z M 0 90 " clip-rule="nonzero"/></clipPath><clipPath id="89ece2d597"><path d="M 0 257.355469 L 374.644531 257.355469 L 374.644531 337.320312 L 0 337.320312 Z M 0 257.355469 " clip-rule="nonzero"/></clipPath></defs><path fill="#d6a85a" d="M 185.769531 106.285156 C 181.285156 138.074219 151.882812 160.207031 120.09375 155.726562 C 88.304688 151.242188 66.171875 121.839844 70.65625 90.050781 C 75.136719 58.261719 104.542969 36.128906 136.328125 40.609375 C 168.117188 45.09375 190.25 74.496094 185.769531 106.285156 Z M 185.769531 106.285156 " fill-opacity="1" fill-rule="nonzero"/><g clip-path="url(#344b00229c)"><path fill="#6c884d" d="M 45.476562 307.8125 C 31.28125 307.679688 17.03125 306.269531 3.113281 303.628906 C 1.457031 303.3125 0.367188 301.714844 0.679688 300.054688 C 0.996094 298.394531 2.59375 297.304688 4.253906 297.621094 C 17.816406 300.195312 31.699219 301.566406 45.523438 301.699219 C 58.480469 301.820312 68.707031 301.917969 82.132812 299.15625 C 91.835938 297.15625 98.027344 294.699219 103.488281 292.535156 C 110.738281 289.65625 116.996094 287.171875 128.289062 286.738281 C 136.570312 286.421875 145.308594 287.273438 154.273438 289.277344 C 160.667969 290.707031 165.871094 292.582031 170.898438 294.398438 C 181.300781 298.152344 191.125 301.699219 211.320312 301.699219 C 231.515625 301.699219 241.339844 298.152344 251.742188 294.398438 C 262.179688 290.632812 272.972656 286.734375 294.238281 286.734375 C 302.28125 286.734375 311.460938 287.636719 320.078125 289.273438 C 328.621094 290.894531 337.074219 293.300781 345.210938 296.429688 C 346.785156 297.035156 347.570312 298.804688 346.964844 300.382812 C 346.359375 301.957031 344.589844 302.742188 343.015625 302.136719 C 335.222656 299.140625 327.121094 296.832031 318.9375 295.277344 C 307.800781 293.167969 298.683594 292.851562 294.238281 292.851562 C 274.042969 292.851562 264.21875 296.398438 253.816406 300.148438 C 243.378906 303.917969 232.582031 307.8125 211.320312 307.8125 C 190.054688 307.8125 179.261719 303.917969 168.824219 300.148438 C 163.75 298.320312 158.957031 296.589844 152.9375 295.242188 C 144.488281 293.355469 136.28125 292.550781 128.523438 292.847656 C 118.277344 293.242188 112.746094 295.4375 105.742188 298.214844 C 100.046875 300.476562 93.59375 303.039062 83.363281 305.144531 C 72.054688 307.472656 62.703125 307.859375 52.824219 307.859375 C 50.417969 307.859375 47.980469 307.835938 45.476562 307.8125 Z M 345.203125 328.058594 C 334.234375 323.90625 322.8125 320.796875 311.246094 318.8125 C 302.65625 317.339844 296.414062 316.375 288.277344 316.375 C 268.984375 316.375 259.199219 320.289062 249.734375 324.074219 C 240.394531 327.808594 231.574219 331.335938 213.460938 331.335938 C 195.34375 331.335938 186.527344 327.808594 177.1875 324.074219 C 167.722656 320.289062 157.9375 316.375 138.644531 316.375 C 119.355469 316.375 109.566406 320.289062 100.105469 324.074219 C 90.765625 327.808594 81.949219 331.335938 63.832031 331.335938 C 44.699219 331.335938 35.820312 329.863281 26.949219 327.324219 C 25.324219 326.855469 23.632812 327.796875 23.167969 329.417969 C 22.703125 331.042969 23.640625 332.734375 25.265625 333.199219 C 34.660156 335.890625 43.980469 337.449219 63.832031 337.449219 C 83.125 337.449219 92.910156 333.535156 102.375 329.75 C 111.710938 326.015625 120.53125 322.488281 138.644531 322.488281 C 156.761719 322.488281 165.582031 326.015625 174.917969 329.75 C 184.382812 333.535156 194.167969 337.449219 213.460938 337.449219 C 232.753906 337.449219 242.539062 333.535156 252.003906 329.75 C 261.34375 326.015625 270.160156 322.488281 288.277344 322.488281 C 295.929688 322.488281 301.933594 323.417969 310.214844 324.839844 C 321.390625 326.757812 332.4375 329.765625 343.039062 333.777344 C 344.625 334.375 346.386719 333.578125 346.980469 332 C 347.578125 330.417969 346.785156 328.65625 345.203125 328.058594 Z M 373.640625 182.523438 C 373.054688 183.433594 372.070312 183.933594 371.0625 183.933594 C 370.496094 183.933594 369.925781 183.777344 369.414062 183.449219 L 346.882812 169 L 346.882812 271.289062 C 346.882812 271.292969 346.882812 271.300781 346.882812 271.304688 L 346.882812 271.308594 C 346.882812 271.320312 346.878906 271.335938 346.878906 271.347656 C 346.875 271.535156 346.859375 271.722656 346.820312 271.910156 C 346.785156 272.089844 346.730469 272.261719 346.664062 272.429688 C 346.65625 272.449219 346.652344 272.46875 346.644531 272.488281 C 346.566406 272.675781 346.46875 272.855469 346.355469 273.023438 C 346.292969 273.117188 346.214844 273.195312 346.140625 273.28125 C 346.085938 273.347656 346.039062 273.417969 345.980469 273.476562 C 345.890625 273.566406 345.789062 273.640625 345.6875 273.714844 C 345.632812 273.761719 345.582031 273.808594 345.523438 273.847656 C 345.421875 273.914062 345.3125 273.964844 345.207031 274.019531 C 345.136719 274.054688 345.074219 274.097656 345 274.128906 C 344.863281 274.1875 344.71875 274.222656 344.578125 274.261719 C 344.527344 274.273438 344.484375 274.292969 344.4375 274.304688 C 344.238281 274.34375 344.03125 274.363281 343.824219 274.363281 C 343.8125 274.363281 343.800781 274.363281 343.785156 274.359375 C 343.597656 274.359375 343.410156 274.34375 343.222656 274.304688 C 343.042969 274.269531 342.871094 274.210938 342.707031 274.148438 C 342.6875 274.140625 342.664062 274.136719 342.644531 274.128906 C 342.644531 274.128906 342.644531 274.128906 342.640625 274.125 C 342.636719 274.125 342.632812 274.125 342.628906 274.121094 C 334.617188 270.773438 326.238281 268.234375 317.726562 266.566406 C 309.742188 265.007812 301.566406 264.179688 294.074219 264.179688 C 274.605469 264.179688 265.132812 267.722656 255.105469 271.46875 C 245.007812 275.242188 234.570312 279.144531 213.996094 279.144531 C 193.425781 279.144531 182.988281 275.242188 172.890625 271.46875 C 162.863281 267.722656 153.390625 264.179688 133.925781 264.179688 C 114.460938 264.179688 104.988281 267.722656 94.960938 271.46875 C 84.867188 275.242188 74.425781 279.144531 53.855469 279.144531 C 32.65625 279.144531 22.707031 277.589844 12.6875 274.910156 C 12.621094 274.890625 12.558594 274.859375 12.496094 274.835938 C 12.394531 274.800781 12.296875 274.769531 12.199219 274.722656 C 12.097656 274.675781 12.007812 274.621094 11.914062 274.566406 C 11.832031 274.515625 11.753906 274.472656 11.675781 274.417969 C 11.574219 274.339844 11.480469 274.253906 11.386719 274.164062 C 11.34375 274.125 11.292969 274.09375 11.25 274.046875 C 11.238281 274.035156 11.230469 274.019531 11.21875 274.003906 C 11.136719 273.917969 11.070312 273.820312 11.003906 273.726562 C 10.953125 273.65625 10.898438 273.589844 10.855469 273.515625 C 10.800781 273.429688 10.765625 273.335938 10.722656 273.242188 C 10.679688 273.15625 10.632812 273.070312 10.601562 272.980469 C 10.570312 272.886719 10.550781 272.789062 10.527344 272.695312 C 10.503906 272.601562 10.472656 272.507812 10.457031 272.410156 C 10.445312 272.316406 10.445312 272.21875 10.441406 272.121094 C 10.433594 272.019531 10.421875 271.917969 10.429688 271.820312 C 10.433594 271.734375 10.449219 271.648438 10.460938 271.5625 C 10.476562 271.445312 10.488281 271.332031 10.515625 271.21875 C 10.523438 271.199219 10.519531 271.183594 10.527344 271.164062 C 10.542969 271.097656 10.574219 271.039062 10.597656 270.976562 C 10.632812 270.867188 10.671875 270.757812 10.722656 270.648438 C 10.761719 270.558594 10.816406 270.476562 10.867188 270.394531 C 10.917969 270.308594 10.964844 270.222656 11.027344 270.140625 C 11.09375 270.046875 11.171875 269.964844 11.25 269.882812 C 11.296875 269.832031 11.335938 269.773438 11.386719 269.726562 C 25.707031 256.296875 41.238281 244.714844 57.832031 235.027344 L 57.832031 161.988281 C 56.332031 162.164062 54.621094 162.585938 52.851562 163.484375 C 49.730469 165.0625 47.875 167.355469 46.867188 169.003906 C 46.289062 169.945312 45.285156 170.464844 44.257812 170.464844 C 43.710938 170.464844 43.160156 170.320312 42.664062 170.011719 C 41.222656 169.132812 40.769531 167.25 41.652344 165.808594 C 43.074219 163.488281 45.691406 160.253906 50.085938 158.027344 C 51.546875 157.289062 52.980469 156.777344 54.34375 156.425781 C 53.410156 155.742188 52.417969 155.136719 51.378906 154.636719 C 49.023438 153.507812 46.390625 152.875 43.773438 152.808594 C 42.082031 152.769531 40.75 151.367188 40.792969 149.679688 C 40.835938 147.992188 42.261719 146.664062 43.925781 146.699219 C 47.402344 146.785156 50.894531 147.625 54.023438 149.125 C 55.148438 149.664062 56.234375 150.300781 57.269531 151.007812 C 57.253906 149.546875 57.355469 148.085938 57.589844 146.632812 C 57.945312 144.433594 58.589844 142.28125 59.507812 140.230469 C 60.195312 138.6875 62.003906 137.996094 63.542969 138.683594 C 65.085938 139.371094 65.777344 141.179688 65.089844 142.722656 C 64.390625 144.289062 63.898438 145.933594 63.625 147.609375 C 63.429688 148.828125 63.355469 150.054688 63.390625 151.285156 C 64.90625 150.195312 66.554688 149.292969 68.292969 148.621094 C 71.226562 147.484375 74.445312 146.980469 77.597656 147.160156 C 79.285156 147.257812 80.574219 148.703125 80.476562 150.386719 C 80.378906 152.074219 78.9375 153.359375 77.246094 153.265625 C 74.957031 153.132812 72.625 153.5 70.503906 154.320312 C 68.855469 154.960938 67.503906 155.800781 66.414062 156.660156 C 68.824219 157.507812 71.085938 158.6875 73.160156 160.203125 C 75.4375 161.863281 77.429688 163.878906 79.074219 166.1875 C 80.054688 167.566406 79.730469 169.472656 78.355469 170.453125 C 77.820312 170.835938 77.199219 171.019531 76.585938 171.019531 C 75.632812 171.019531 74.691406 170.574219 74.09375 169.734375 C 72.828125 167.960938 71.304688 166.414062 69.558594 165.140625 C 67.84375 163.890625 65.960938 162.929688 63.949219 162.273438 L 63.949219 231.566406 C 76.167969 224.882812 88.933594 219.191406 102.210938 214.554688 C 105.140625 213.535156 108.089844 212.570312 111.054688 211.65625 C 111.054688 211.617188 111.042969 211.578125 111.042969 211.535156 L 111.042969 118.40625 C 108.90625 118.5625 106.371094 119.09375 103.726562 120.433594 C 99.679688 122.480469 97.269531 125.460938 95.960938 127.597656 C 95.382812 128.539062 94.378906 129.058594 93.347656 129.058594 C 92.804688 129.058594 92.253906 128.914062 91.753906 128.609375 C 90.316406 127.726562 89.863281 125.84375 90.746094 124.40625 C 92.46875 121.59375 95.640625 117.675781 100.964844 114.976562 C 103.289062 113.800781 105.558594 113.09375 107.644531 112.691406 C 106.09375 111.382812 104.382812 110.265625 102.5625 109.390625 C 99.523438 107.933594 96.136719 107.121094 92.761719 107.035156 C 91.074219 106.996094 89.738281 105.589844 89.78125 103.902344 C 89.824219 102.214844 91.230469 100.882812 92.914062 100.925781 C 97.144531 101.027344 101.394531 102.050781 105.203125 103.878906 C 107.035156 104.753906 108.769531 105.832031 110.390625 107.0625 C 110.253906 104.773438 110.363281 102.484375 110.730469 100.207031 C 111.164062 97.527344 111.949219 94.902344 113.066406 92.402344 C 113.753906 90.863281 115.5625 90.171875 117.101562 90.859375 C 118.644531 91.546875 119.335938 93.355469 118.648438 94.898438 C 117.75 96.910156 117.117188 99.027344 116.765625 101.183594 C 116.4375 103.226562 116.367188 105.285156 116.542969 107.34375 C 118.679688 105.636719 121.066406 104.257812 123.609375 103.269531 C 127.167969 101.890625 131.070312 101.277344 134.902344 101.5 C 136.589844 101.597656 137.875 103.042969 137.777344 104.726562 C 137.683594 106.410156 136.25 107.707031 134.550781 107.601562 C 131.59375 107.4375 128.570312 107.90625 125.820312 108.972656 C 123.117188 110.019531 121.023438 111.488281 119.464844 112.886719 C 122.882812 113.929688 126.070312 115.511719 128.964844 117.625 C 131.738281 119.648438 134.164062 122.105469 136.171875 124.921875 C 137.148438 126.296875 136.828125 128.207031 135.453125 129.1875 C 134.914062 129.570312 134.296875 129.753906 133.683594 129.753906 C 132.726562 129.753906 131.785156 129.308594 131.191406 128.46875 C 129.566406 126.1875 127.605469 124.203125 125.359375 122.5625 C 122.875 120.75 120.121094 119.421875 117.15625 118.582031 L 117.15625 209.859375 C 132.960938 205.421875 149.210938 202.515625 165.660156 201.191406 L 165.660156 168.507812 L 142.355469 183.449219 C 140.933594 184.359375 139.042969 183.945312 138.128906 182.523438 C 137.21875 181.101562 137.632812 179.210938 139.054688 178.300781 L 254.234375 104.457031 C 255.242188 103.8125 256.53125 103.8125 257.535156 104.457031 L 372.714844 178.300781 C 374.136719 179.210938 374.550781 181.101562 373.640625 182.523438 Z M 133.925781 258.066406 C 148.371094 258.066406 157.816406 259.992188 165.660156 262.441406 L 165.660156 207.324219 C 144.664062 209.058594 124.011719 213.421875 104.226562 220.328125 C 72.992188 231.230469 44.613281 248.046875 19.78125 270.335938 C 27.816406 272.058594 37.230469 273.027344 53.855469 273.027344 C 73.320312 273.027344 82.792969 269.488281 92.820312 265.742188 C 102.917969 261.96875 113.355469 258.066406 133.925781 258.066406 Z M 340.769531 165.082031 L 255.886719 110.664062 L 171.773438 164.585938 L 171.773438 264.53125 C 172.871094 264.933594 173.953125 265.339844 175.03125 265.742188 C 185.0625 269.488281 194.53125 273.027344 213.996094 273.027344 C 233.464844 273.027344 242.9375 269.488281 252.964844 265.742188 C 263.0625 261.96875 273.5 258.066406 294.074219 258.066406 C 301.953125 258.066406 310.535156 258.929688 318.898438 260.566406 C 326.335938 262.023438 333.667969 264.125 340.769531 266.8125 Z M 260.90625 204.714844 L 260.90625 189.460938 C 260.90625 187.769531 262.273438 186.402344 263.960938 186.402344 L 287.933594 186.402344 C 289.621094 186.402344 290.988281 187.769531 290.988281 189.460938 L 290.988281 204.714844 C 290.988281 206.402344 289.621094 207.769531 287.933594 207.769531 L 263.960938 207.769531 C 262.273438 207.769531 260.90625 206.402344 260.90625 204.714844 Z M 267.019531 201.65625 L 284.875 201.65625 L 284.875 192.515625 L 267.019531 192.515625 Z M 250.835938 189.523438 L 250.835938 204.777344 C 250.835938 206.464844 249.464844 207.832031 247.777344 207.832031 L 223.808594 207.832031 C 222.117188 207.832031 220.75 206.464844 220.75 204.777344 L 220.75 189.523438 C 220.75 187.835938 222.117188 186.464844 223.808594 186.464844 L 247.777344 186.464844 C 249.464844 186.464844 250.835938 187.835938 250.835938 189.523438 Z M 244.71875 192.578125 L 226.863281 192.578125 L 226.863281 201.71875 L 244.71875 201.71875 Z M 260.90625 238.109375 L 260.90625 222.855469 C 260.90625 221.167969 262.273438 219.796875 263.960938 219.796875 L 287.933594 219.796875 C 289.621094 219.796875 290.988281 221.167969 290.988281 222.855469 L 290.988281 238.109375 C 290.988281 239.796875 289.621094 241.164062 287.933594 241.164062 L 263.960938 241.164062 C 262.273438 241.164062 260.90625 239.796875 260.90625 238.109375 Z M 267.019531 235.050781 L 284.875 235.050781 L 284.875 225.914062 L 267.019531 225.914062 Z M 250.835938 222.917969 L 250.835938 238.171875 C 250.835938 239.859375 249.464844 241.230469 247.777344 241.230469 L 223.808594 241.230469 C 222.117188 241.230469 220.75 239.859375 220.75 238.171875 L 220.75 222.917969 C 220.75 221.230469 222.117188 219.863281 223.808594 219.863281 L 247.777344 219.863281 C 249.464844 219.863281 250.835938 221.230469 250.835938 222.917969 Z M 244.71875 225.976562 L 226.863281 225.976562 L 226.863281 235.113281 L 244.71875 235.113281 Z M 244.71875 225.976562 " fill-opacity="1" fill-rule="nonzero"/></g><g clip-path="url(#89ece2d597)"><path fill="#5ca1b0" d="M 45.476562 307.8125 C 31.28125 307.679688 17.03125 306.269531 3.113281 303.628906 C 1.457031 303.3125 0.367188 301.714844 0.679688 300.054688 C 0.996094 298.394531 2.59375 297.304688 4.253906 297.621094 C 17.816406 300.195312 31.699219 301.566406 45.523438 301.699219 C 58.480469 301.820312 68.707031 301.917969 82.132812 299.15625 C 91.835938 297.15625 98.027344 294.699219 103.488281 292.535156 C 110.738281 289.65625 116.996094 287.171875 128.289062 286.738281 C 136.570312 286.421875 145.308594 287.273438 154.273438 289.277344 C 160.667969 290.707031 165.871094 292.582031 170.898438 294.398438 C 181.300781 298.152344 191.125 301.699219 211.320312 301.699219 C 231.515625 301.699219 241.339844 298.152344 251.742188 294.398438 C 262.179688 290.632812 272.972656 286.734375 294.238281 286.734375 C 302.28125 286.734375 311.460938 287.636719 320.078125 289.273438 C 328.621094 290.894531 337.074219 293.300781 345.210938 296.429688 C 346.785156 297.035156 347.570312 298.804688 346.964844 300.382812 C 346.359375 301.957031 344.589844 302.742188 343.015625 302.136719 C 335.222656 299.136719 327.121094 296.832031 318.9375 295.277344 C 307.800781 293.167969 298.683594 292.851562 294.238281 292.851562 C 274.042969 292.851562 264.21875 296.398438 253.816406 300.148438 C 243.378906 303.917969 232.582031 307.8125 211.320312 307.8125 C 190.054688 307.8125 179.261719 303.917969 168.824219 300.148438 C 163.75 298.320312 158.957031 296.589844 152.9375 295.242188 C 144.488281 293.355469 136.28125 292.550781 128.523438 292.847656 C 118.277344 293.242188 112.746094 295.4375 105.742188 298.214844 C 100.046875 300.476562 93.59375 303.039062 83.363281 305.144531 C 72.054688 307.472656 62.703125 307.859375 52.824219 307.859375 C 50.417969 307.859375 47.980469 307.835938 45.476562 307.8125 Z M 345.203125 328.058594 C 334.234375 323.90625 322.8125 320.796875 311.246094 318.8125 C 302.65625 317.339844 296.414062 316.371094 288.277344 316.371094 C 268.984375 316.371094 259.199219 320.289062 249.734375 324.074219 C 240.394531 327.808594 231.574219 331.335938 213.460938 331.335938 C 195.34375 331.335938 186.527344 327.808594 177.1875 324.074219 C 167.722656 320.289062 157.9375 316.371094 138.644531 316.371094 C 119.355469 316.371094 109.566406 320.289062 100.105469 324.074219 C 90.765625 327.808594 81.949219 331.335938 63.832031 331.335938 C 44.699219 331.335938 35.820312 329.863281 26.949219 327.324219 C 25.324219 326.855469 23.632812 327.796875 23.167969 329.417969 C 22.703125 331.042969 23.640625 332.734375 25.265625 333.199219 C 34.660156 335.890625 43.980469 337.449219 63.832031 337.449219 C 83.125 337.449219 92.910156 333.535156 102.375 329.75 C 111.710938 326.015625 120.53125 322.488281 138.644531 322.488281 C 156.761719 322.488281 165.582031 326.015625 174.917969 329.75 C 184.382812 333.535156 194.167969 337.449219 213.460938 337.449219 C 232.753906 337.449219 242.539062 333.535156 252.003906 329.75 C 261.34375 326.015625 270.160156 322.488281 288.277344 322.488281 C 295.929688 322.488281 301.933594 323.417969 310.214844 324.839844 C 321.390625 326.757812 332.4375 329.761719 343.039062 333.777344 C 344.625 334.375 346.386719 333.578125 346.980469 332 C 347.578125 330.417969 346.785156 328.65625 345.203125 328.058594 Z M 373.640625 182.523438 C 373.054688 183.433594 372.070312 183.933594 371.0625 183.933594 C 370.496094 183.933594 369.925781 183.777344 369.414062 183.449219 L 346.882812 169 L 346.882812 271.289062 C 346.882812 271.292969 346.882812 271.300781 346.882812 271.304688 L 346.882812 271.308594 C 346.882812 271.320312 346.878906 271.335938 346.878906 271.347656 C 346.875 271.535156 346.859375 271.722656 346.820312 271.910156 C 346.785156 272.089844 346.730469 272.261719 346.664062 272.429688 C 346.65625 272.449219 346.652344 272.46875 346.644531 272.488281 C 346.566406 272.675781 346.46875 272.855469 346.355469 273.023438 C 346.292969 273.117188 346.214844 273.195312 346.140625 273.28125 C 346.085938 273.347656 346.039062 273.417969 345.980469 273.476562 C 345.890625 273.566406 345.789062 273.640625 345.6875 273.714844 C 345.632812 273.761719 345.582031 273.808594 345.523438 273.847656 C 345.421875 273.914062 345.3125 273.964844 345.207031 274.019531 C 345.136719 274.054688 345.074219 274.097656 345 274.128906 C 344.863281 274.1875 344.71875 274.222656 344.578125 274.261719 C 344.527344 274.273438 344.484375 274.292969 344.4375 274.304688 C 344.238281 274.34375 344.03125 274.363281 343.824219 274.363281 C 343.8125 274.363281 343.800781 274.363281 343.785156 274.359375 C 343.597656 274.359375 343.410156 274.34375 343.222656 274.304688 C 343.042969 274.269531 342.871094 274.210938 342.707031 274.148438 C 342.6875 274.140625 342.664062 274.136719 342.644531 274.128906 C 342.644531 274.128906 342.644531 274.128906 342.640625 274.125 C 342.636719 274.125 342.632812 274.125 342.628906 274.121094 C 334.617188 270.773438 326.238281 268.234375 317.726562 266.566406 C 309.742188 265.007812 301.566406 264.179688 294.074219 264.179688 C 274.605469 264.179688 265.132812 267.722656 255.105469 271.46875 C 245.007812 275.242188 234.570312 279.144531 213.996094 279.144531 C 193.425781 279.144531 182.988281 275.242188 172.890625 271.46875 C 162.863281 267.722656 153.390625 264.179688 133.925781 264.179688 C 114.460938 264.179688 104.988281 267.722656 94.960938 271.46875 C 84.867188 275.242188 74.425781 279.144531 53.855469 279.144531 C 32.65625 279.144531 22.707031 277.589844 12.6875 274.910156 C 12.621094 274.890625 12.558594 274.859375 12.496094 274.835938 C 12.394531 274.800781 12.296875 274.769531 12.199219 274.722656 C 12.097656 274.675781 12.007812 274.621094 11.914062 274.566406 C 11.832031 274.515625 11.753906 274.472656 11.675781 274.417969 C 11.574219 274.339844 11.480469 274.253906 11.386719 274.164062 C 11.34375 274.125 11.292969 274.09375 11.25 274.046875 C 11.238281 274.035156 11.230469 274.019531 11.21875 274.003906 C 11.136719 273.917969 11.070312 273.820312 11.003906 273.726562 C 10.953125 273.65625 10.898438 273.589844 10.855469 273.515625 C 10.800781 273.429688 10.765625 273.335938 10.722656 273.242188 C 10.679688 273.15625 10.632812 273.070312 10.601562 272.980469 C 10.570312 272.886719 10.550781 272.789062 10.527344 272.695312 C 10.503906 272.601562 10.472656 272.507812 10.457031 272.410156 C 10.445312 272.316406 10.445312 272.21875 10.441406 272.121094 C 10.433594 272.019531 10.421875 271.917969 10.429688 271.820312 C 10.433594 271.734375 10.449219 271.648438 10.460938 271.5625 C 10.476562 271.445312 10.488281 271.332031 10.515625 271.21875 C 10.523438 271.199219 10.519531 271.183594 10.527344 271.164062 C 10.542969 271.097656 10.574219 271.039062 10.597656 270.976562 C 10.632812 270.867188 10.671875 270.757812 10.722656 270.648438 C 10.761719 270.558594 10.816406 270.476562 10.867188 270.394531 C 10.917969 270.308594 10.964844 270.222656 11.027344 270.140625 C 11.09375 270.046875 11.171875 269.964844 11.25 269.882812 C 11.296875 269.832031 11.335938 269.773438 11.386719 269.726562 C 25.707031 256.296875 41.238281 244.714844 57.832031 235.027344 L 57.832031 161.988281 C 56.332031 162.164062 54.621094 162.585938 52.851562 163.484375 C 49.730469 165.0625 47.875 167.355469 46.867188 169.003906 C 46.289062 169.945312 45.285156 170.464844 44.257812 170.464844 C 43.710938 170.464844 43.160156 170.320312 42.664062 170.011719 C 41.222656 169.132812 40.769531 167.25 41.652344 165.808594 C 43.074219 163.488281 45.691406 160.253906 50.085938 158.027344 C 51.546875 157.289062 52.980469 156.777344 54.34375 156.425781 C 53.410156 155.742188 52.417969 155.136719 51.378906 154.636719 C 49.023438 153.507812 46.390625 152.875 43.773438 152.808594 C 42.082031 152.769531 40.75 151.367188 40.792969 149.679688 C 40.835938 147.992188 42.261719 146.664062 43.925781 146.699219 C 47.402344 146.785156 50.894531 147.625 54.023438 149.125 C 55.148438 149.664062 56.234375 150.300781 57.269531 151.007812 C 57.253906 149.546875 57.355469 148.085938 57.589844 146.632812 C 57.945312 144.433594 58.589844 142.28125 59.507812 140.230469 C 60.195312 138.6875 62.003906 137.996094 63.542969 138.683594 C 65.085938 139.371094 65.777344 141.179688 65.089844 142.722656 C 64.390625 144.289062 63.898438 145.933594 63.625 147.609375 C 63.429688 148.828125 63.355469 150.054688 63.390625 151.285156 C 64.90625 150.195312 66.554688 149.292969 68.292969 148.621094 C 71.226562 147.484375 74.445312 146.980469 77.597656 147.160156 C 79.285156 147.257812 80.574219 148.703125 80.476562 150.386719 C 80.378906 152.074219 78.9375 153.359375 77.246094 153.265625 C 74.957031 153.132812 72.625 153.5 70.503906 154.320312 C 68.855469 154.960938 67.503906 155.800781 66.414062 156.660156 C 68.824219 157.507812 71.085938 158.6875 73.160156 160.203125 C 75.4375 161.863281 77.429688 163.878906 79.074219 166.1875 C 80.054688 167.566406 79.730469 169.472656 78.355469 170.453125 C 77.820312 170.835938 77.199219 171.019531 76.585938 171.019531 C 75.632812 171.019531 74.691406 170.574219 74.09375 169.734375 C 72.828125 167.960938 71.304688 166.414062 69.558594 165.140625 C 67.84375 163.890625 65.960938 162.929688 63.949219 162.273438 L 63.949219 231.566406 C 76.167969 224.882812 88.933594 219.191406 102.210938 214.554688 C 105.140625 213.535156 108.089844 212.570312 111.054688 211.65625 C 111.054688 211.617188 111.042969 211.578125 111.042969 211.535156 L 111.042969 118.40625 C 108.90625 118.5625 106.371094 119.09375 103.726562 120.433594 C 99.679688 122.480469 97.269531 125.460938 95.960938 127.597656 C 95.382812 128.539062 94.378906 129.058594 93.347656 129.058594 C 92.804688 129.058594 92.253906 128.914062 91.753906 128.609375 C 90.316406 127.726562 89.863281 125.84375 90.746094 124.40625 C 92.46875 121.59375 95.640625 117.675781 100.964844 114.976562 C 103.289062 113.800781 105.558594 113.09375 107.644531 112.691406 C 106.09375 111.382812 104.382812 110.265625 102.5625 109.390625 C 99.523438 107.933594 96.136719 107.121094 92.761719 107.035156 C 91.074219 106.996094 89.738281 105.589844 89.78125 103.902344 C 89.824219 102.214844 91.230469 100.882812 92.914062 100.925781 C 97.144531 101.027344 101.394531 102.050781 105.203125 103.878906 C 107.035156 104.753906 108.769531 105.832031 110.390625 107.0625 C 110.253906 104.773438 110.363281 102.484375 110.730469 100.207031 C 111.164062 97.527344 111.949219 94.902344 113.066406 92.402344 C 113.753906 90.863281 115.5625 90.171875 117.101562 90.859375 C 118.644531 91.546875 119.335938 93.355469 118.648438 94.898438 C 117.75 96.910156 117.117188 99.027344 116.765625 101.183594 C 116.4375 103.226562 116.367188 105.285156 116.542969 107.34375 C 118.679688 105.636719 121.066406 104.257812 123.609375 103.269531 C 127.167969 101.890625 131.070312 101.277344 134.902344 101.5 C 136.589844 101.597656 137.875 103.042969 137.777344 104.726562 C 137.683594 106.410156 136.25 107.707031 134.550781 107.601562 C 131.59375 107.4375 128.570312 107.90625 125.820312 108.972656 C 123.117188 110.019531 121.023438 111.488281 119.464844 112.886719 C 122.882812 113.929688 126.070312 115.511719 128.964844 117.625 C 131.738281 119.648438 134.164062 122.105469 136.171875 124.921875 C 137.148438 126.296875 136.828125 128.207031 135.453125 129.1875 C 134.914062 129.570312 134.296875 129.753906 133.683594 129.753906 C 132.726562 129.753906 131.785156 129.308594 131.191406 128.46875 C 129.566406 126.1875 127.605469 124.203125 125.359375 122.5625 C 122.875 120.75 120.121094 119.421875 117.15625 118.582031 L 117.15625 209.859375 C 132.960938 205.421875 149.210938 202.515625 165.660156 201.191406 L 165.660156 168.507812 L 142.355469 183.449219 C 140.933594 184.359375 139.042969 183.945312 138.128906 182.523438 C 137.21875 181.101562 137.632812 179.210938 139.054688 178.300781 L 254.234375 104.457031 C 255.242188 103.8125 256.53125 103.8125 257.535156 104.457031 L 372.714844 178.300781 C 374.136719 179.210938 374.550781 181.101562 373.640625 182.523438 Z M 133.925781 258.066406 C 148.371094 258.066406 157.816406 259.992188 165.660156 262.441406 L 165.660156 207.324219 C 144.664062 209.058594 124.011719 213.421875 104.226562 220.328125 C 72.992188 231.230469 44.613281 248.046875 19.78125 270.335938 C 27.816406 272.058594 37.230469 273.027344 53.855469 273.027344 C 73.320312 273.027344 82.792969 269.488281 92.820312 265.742188 C 102.917969 261.96875 113.355469 258.066406 133.925781 258.066406 Z M 340.769531 165.082031 L 255.886719 110.664062 L 171.773438 164.585938 L 171.773438 264.53125 C 172.871094 264.933594 173.953125 265.335938 175.03125 265.742188 C 185.0625 269.488281 194.53125 273.027344 213.996094 273.027344 C 233.464844 273.027344 242.9375 269.488281 252.964844 265.742188 C 263.0625 261.96875 273.5 258.066406 294.074219 258.066406 C 301.953125 258.066406 310.535156 258.929688 318.898438 260.566406 C 326.335938 262.023438 333.667969 264.121094 340.769531 266.8125 Z M 260.90625 204.714844 L 260.90625 189.460938 C 260.90625 187.769531 262.273438 186.402344 263.960938 186.402344 L 287.933594 186.402344 C 289.621094 186.402344 290.988281 187.769531 290.988281 189.460938 L 290.988281 204.714844 C 290.988281 206.402344 289.621094 207.769531 287.933594 207.769531 L 263.960938 207.769531 C 262.273438 207.769531 260.90625 206.402344 260.90625 204.714844 Z M 267.019531 201.65625 L 284.875 201.65625 L 284.875 192.515625 L 267.019531 192.515625 Z M 250.835938 189.523438 L 250.835938 204.777344 C 250.835938 206.464844 249.464844 207.832031 247.777344 207.832031 L 223.808594 207.832031 C 222.117188 207.832031 220.75 206.464844 220.75 204.777344 L 220.75 189.523438 C 220.75 187.835938 222.117188 186.464844 223.808594 186.464844 L 247.777344 186.464844 C 249.464844 186.464844 250.835938 187.835938 250.835938 189.523438 Z M 244.71875 192.578125 L 226.863281 192.578125 L 226.863281 201.71875 L 244.71875 201.71875 Z M 260.90625 238.109375 L 260.90625 222.855469 C 260.90625 221.167969 262.273438 219.796875 263.960938 219.796875 L 287.933594 219.796875 C 289.621094 219.796875 290.988281 221.167969 290.988281 222.855469 L 290.988281 238.109375 C 290.988281 239.796875 289.621094 241.164062 287.933594 241.164062 L 263.960938 241.164062 C 262.273438 241.164062 260.90625 239.796875 260.90625 238.109375 Z M 267.019531 235.050781 L 284.875 235.050781 L 284.875 225.914062 L 267.019531 225.914062 Z M 250.835938 222.917969 L 250.835938 238.171875 C 250.835938 239.859375 249.464844 241.230469 247.777344 241.230469 L 223.808594 241.230469 C 222.117188 241.230469 220.75 239.859375 220.75 238.171875 L 220.75 222.917969 C 220.75 221.230469 222.117188 219.863281 223.808594 219.863281 L 247.777344 219.863281 C 249.464844 219.863281 250.835938 221.230469 250.835938 222.917969 Z M 244.71875 225.976562 L 226.863281 225.976562 L 226.863281 235.113281 L 244.71875 235.113281 Z M 244.71875 225.976562 " fill-opacity="1" fill-rule="nonzero"/></g></svg>